<?xml version="1.0" encoding="UTF-8" standalone="no"?>
<!-- Created with Inkscape (http://www.inkscape.org/) -->
<svg xmlns:dc="http://purl.org/dc/elements/1.1/" xmlns:cc="http://creativecommons.org/ns#" xmlns:rdf="http://www.w3.org/1999/02/22-rdf-syntax-ns#" xmlns:svg="http://www.w3.org/2000/svg" xmlns="http://www.w3.org/2000/svg" xmlns:xlink="http://www.w3.org/1999/xlink" xmlns:sodipodi="http://sodipodi.sourceforge.net/DTD/sodipodi-0.dtd" xmlns:inkscape="http://www.inkscape.org/namespaces/inkscape" width="226.42715" height="295.11108" id="svg2" version="1.1" inkscape:version="0.48.2 r9819" sodipodi:docname="ffffff.svg">
  <sodipodi:namedview id="base" pagecolor="#ffffff" bordercolor="#666666" borderopacity="1.0" inkscape:pageopacity="0.0" inkscape:pageshadow="2" inkscape:zoom="0.7" inkscape:cx="91.021179" inkscape:cy="-1.9518854" inkscape:document-units="px" inkscape:current-layer="layer1" showgrid="false" inkscape:window-width="1440" inkscape:window-height="844" inkscape:window-x="-4" inkscape:window-y="-4" inkscape:window-maximized="1" fit-margin-top="0" fit-margin-left="0" fit-margin-right="0" fit-margin-bottom="0"/>
  <defs id="defs4">
    <linearGradient id="linearGradient5108">
      <stop style="stop-color:#00001f;stop-opacity:1;" offset="0" id="stop5112"/>
      <stop style="stop-color:#193268;stop-opacity:1" offset="1" id="stop5110"/>
    </linearGradient>
    <linearGradient id="linearGradient5080">
      <stop id="stop5082" offset="0" style="stop-color:#000000;stop-opacity:1;"/>
      <stop id="stop5084" offset="1" style="stop-color:#525252;stop-opacity:1;"/>
    </linearGradient>
    <pattern patternTransform="translate(518.43806,54.862182)" id="pattern4989" xlink:href="#pattern4882" inkscape:collect="always"/>
    <linearGradient id="linearGradient4947">
      <stop id="stop4949" offset="0" style="stop-color:#ffffff;stop-opacity:1;"/>
      <stop style="stop-color:#faedde;stop-opacity:0" offset="0.12272433" id="stop4971"/>
      <stop id="stop4973" offset="0.89406657" style="stop-color:#faedde;stop-opacity:0"/>
      <stop id="stop4951" offset="1" style="stop-color:#faeddf;stop-opacity:1"/>
    </linearGradient>
    <pattern id="pattern4882" patternTransform="translate(513.05927,54.862182)" height="13.103267" width="28.589315" patternUnits="userSpaceOnUse">
      <rect style="fill:none;stroke:none" width="28.589315" height="13.103267" x="0" y="6.1718754e-07" id="rect4842"/>
      <path inkscape:connector-curvature="0" id="path4852" d="M 2.4863281e-5,0 28.589315,0 l 0,13.035716 -28.589290136719,0 z" style="color:#000000;fill:none;stroke:none;stroke-width:0.69999999;marker:none;visibility:visible;display:inline;overflow:visible;enable-background:accumulate"/>
      <g id="g4856" transform="translate(-547.05816,-62.897348)">
        <g transform="translate(62.345368,-3.7249375)" id="g4858">
          <path transform="matrix(0.72761423,0,0,0.72761423,183.52024,40.540357)" d="m 439.92144,48.144283 c 0,1.046048 -0.84799,1.894036 -1.89404,1.894036 -1.04604,0 -1.89403,-0.847988 -1.89403,-1.894036 0,-1.046047 0.84799,-1.894036 1.89403,-1.894036 1.04605,0 1.89404,0.847989 1.89404,1.894036 z" sodipodi:ry="1.8940361" sodipodi:rx="1.8940361" sodipodi:cy="48.144283" sodipodi:cx="438.0274" id="path4860" style="color:#000000;fill:#ffe4cb;fill-opacity:1;fill-rule:nonzero;stroke:none;stroke-width:0.69999999;marker:none;visibility:visible;display:inline;overflow:visible;enable-background:accumulate" sodipodi:type="arc"/>
          <path sodipodi:type="arc" style="color:#000000;fill:#6e5941;fill-opacity:1;fill-rule:nonzero;stroke:none;stroke-width:0.69999999;marker:none;visibility:visible;display:inline;overflow:visible;enable-background:accumulate" id="path4862" sodipodi:cx="438.0274" sodipodi:cy="48.144283" sodipodi:rx="1.8940361" sodipodi:ry="1.8940361" d="m 439.92144,48.144283 c 0,1.046048 -0.84799,1.894036 -1.89404,1.894036 -1.04604,0 -1.89403,-0.847988 -1.89403,-1.894036 0,-1.046047 0.84799,-1.894036 1.89403,-1.894036 1.04605,0 1.89404,0.847989 1.89404,1.894036 z" transform="matrix(0.58333333,0,0,0.58333333,246.71923,47.239535)"/>
        </g>
        <g id="g4864" transform="translate(49.434358,-3.7249375)">
          <path sodipodi:type="arc" style="color:#000000;fill:#ffe4cb;fill-opacity:1;fill-rule:nonzero;stroke:none;stroke-width:0.69999999;marker:none;visibility:visible;display:inline;overflow:visible;enable-background:accumulate" id="path4866" sodipodi:cx="438.0274" sodipodi:cy="48.144283" sodipodi:rx="1.8940361" sodipodi:ry="1.8940361" d="m 439.92144,48.144283 c 0,1.046048 -0.84799,1.894036 -1.89404,1.894036 -1.04604,0 -1.89403,-0.847988 -1.89403,-1.894036 0,-1.046047 0.84799,-1.894036 1.89403,-1.894036 1.04605,0 1.89404,0.847989 1.89404,1.894036 z" transform="matrix(0.72761423,0,0,0.72761423,183.52024,40.540357)"/>
          <path transform="matrix(0.58333333,0,0,0.58333333,246.71923,47.239535)" d="m 439.92144,48.144283 c 0,1.046048 -0.84799,1.894036 -1.89404,1.894036 -1.04604,0 -1.89403,-0.847988 -1.89403,-1.894036 0,-1.046047 0.84799,-1.894036 1.89403,-1.894036 1.04605,0 1.89404,0.847989 1.89404,1.894036 z" sodipodi:ry="1.8940361" sodipodi:rx="1.8940361" sodipodi:cy="48.144283" sodipodi:cx="438.0274" id="path4868" style="color:#000000;fill:#6e5941;fill-opacity:1;fill-rule:nonzero;stroke:none;stroke-width:0.69999999;marker:none;visibility:visible;display:inline;overflow:visible;enable-background:accumulate" sodipodi:type="arc"/>
        </g>
        <g transform="translate(55.889863,-8.5862966)" id="g4870">
          <path transform="matrix(0.72761423,0,0,0.72761423,183.52024,40.540357)" d="m 439.92144,48.144283 c 0,1.046048 -0.84799,1.894036 -1.89404,1.894036 -1.04604,0 -1.89403,-0.847988 -1.89403,-1.894036 0,-1.046047 0.84799,-1.894036 1.89403,-1.894036 1.04605,0 1.89404,0.847989 1.89404,1.894036 z" sodipodi:ry="1.8940361" sodipodi:rx="1.8940361" sodipodi:cy="48.144283" sodipodi:cx="438.0274" id="path4872" style="color:#000000;fill:#ffe4cb;fill-opacity:1;fill-rule:nonzero;stroke:none;stroke-width:0.69999999;marker:none;visibility:visible;display:inline;overflow:visible;enable-background:accumulate" sodipodi:type="arc"/>
          <path sodipodi:type="arc" style="color:#000000;fill:#6e5941;fill-opacity:1;fill-rule:nonzero;stroke:none;stroke-width:0.69999999;marker:none;visibility:visible;display:inline;overflow:visible;enable-background:accumulate" id="path4874" sodipodi:cx="438.0274" sodipodi:cy="48.144283" sodipodi:rx="1.8940361" sodipodi:ry="1.8940361" d="m 439.92144,48.144283 c 0,1.046048 -0.84799,1.894036 -1.89404,1.894036 -1.04604,0 -1.89403,-0.847988 -1.89403,-1.894036 0,-1.046047 0.84799,-1.894036 1.89403,-1.894036 1.04605,0 1.89404,0.847989 1.89404,1.894036 z" transform="matrix(0.58333333,0,0,0.58333333,246.71923,47.239535)"/>
        </g>
        <g id="g4876" transform="translate(68.800874,-8.5862966)">
          <path sodipodi:type="arc" style="color:#000000;fill:#ffe4cb;fill-opacity:1;fill-rule:nonzero;stroke:none;stroke-width:0.69999999;marker:none;visibility:visible;display:inline;overflow:visible;enable-background:accumulate" id="path4878" sodipodi:cx="438.0274" sodipodi:cy="48.144283" sodipodi:rx="1.8940361" sodipodi:ry="1.8940361" d="m 439.92144,48.144283 c 0,1.046048 -0.84799,1.894036 -1.89404,1.894036 -1.04604,0 -1.89403,-0.847988 -1.89403,-1.894036 0,-1.046047 0.84799,-1.894036 1.89403,-1.894036 1.04605,0 1.89404,0.847989 1.89404,1.894036 z" transform="matrix(0.72761423,0,0,0.72761423,183.52024,40.540357)"/>
          <path transform="matrix(0.58333333,0,0,0.58333333,246.71923,47.239535)" d="m 439.92144,48.144283 c 0,1.046048 -0.84799,1.894036 -1.89404,1.894036 -1.04604,0 -1.89403,-0.847988 -1.89403,-1.894036 0,-1.046047 0.84799,-1.894036 1.89403,-1.894036 1.04605,0 1.89404,0.847989 1.89404,1.894036 z" sodipodi:ry="1.8940361" sodipodi:rx="1.8940361" sodipodi:cy="48.144283" sodipodi:cx="438.0274" id="path4880" style="color:#000000;fill:#6e5941;fill-opacity:1;fill-rule:nonzero;stroke:none;stroke-width:0.69999999;marker:none;visibility:visible;display:inline;overflow:visible;enable-background:accumulate" sodipodi:type="arc"/>
        </g>
      </g>
    </pattern>
    <linearGradient spreadMethod="reflect" gradientUnits="userSpaceOnUse" y2="171.63028" x2="567.11584" y1="108.50471" x1="567.11584" id="linearGradient4955" xlink:href="#linearGradient4947" inkscape:collect="always"/>
    <filter id="filter4961" inkscape:collect="always" color-interpolation-filters="sRGB">
      <feGaussianBlur id="feGaussianBlur4963" stdDeviation="0.81607143" inkscape:collect="always"/>
    </filter>
    <filter id="filter4985" inkscape:collect="always" color-interpolation-filters="sRGB">
      <feGaussianBlur id="feGaussianBlur4987" stdDeviation="0.74375019" inkscape:collect="always"/>
    </filter>
    <linearGradient spreadMethod="reflect" gradientUnits="userSpaceOnUse" y2="414.93307" x2="295.59232" y1="414.93307" x1="160.74445" id="linearGradient5086" xlink:href="#linearGradient5080" inkscape:collect="always"/>
    <linearGradient spreadMethod="reflect" gradientUnits="userSpaceOnUse" y2="378.0625" x2="178.44565" y1="378.0625" x1="74.8125" id="linearGradient5098" xlink:href="#linearGradient5080" inkscape:collect="always"/>
    <linearGradient spreadMethod="reflect" gradientUnits="userSpaceOnUse" y2="297.33118" x2="124.27649" y1="379.28671" x1="171.59354" id="linearGradient5106" xlink:href="#linearGradient5080" inkscape:collect="always" gradientTransform="matrix(0.9941687,0,0,0.98240363,1.6913715,6.6703604)"/>
    <linearGradient spreadMethod="reflect" gradientUnits="userSpaceOnUse" y2="367.71329" x2="184.56233" y1="367.71329" x1="125.76951" id="linearGradient5116" xlink:href="#linearGradient5108" inkscape:collect="always"/>
    <linearGradient inkscape:collect="always" xlink:href="#linearGradient4947" id="linearGradient5373" gradientUnits="userSpaceOnUse" spreadMethod="reflect" x1="567.11584" y1="108.50471" x2="567.11584" y2="171.63028"/>
    <linearGradient inkscape:collect="always" xlink:href="#linearGradient5080" id="linearGradient5375" gradientUnits="userSpaceOnUse" spreadMethod="reflect" x1="160.74445" y1="414.93307" x2="295.59232" y2="414.93307"/>
    <linearGradient inkscape:collect="always" xlink:href="#linearGradient5080" id="linearGradient5377" gradientUnits="userSpaceOnUse" spreadMethod="reflect" x1="74.8125" y1="378.0625" x2="178.44565" y2="378.0625"/>
    <linearGradient inkscape:collect="always" xlink:href="#linearGradient5080" id="linearGradient5379" gradientUnits="userSpaceOnUse" gradientTransform="matrix(0.9941687,0,0,0.98240363,1.6913715,6.6703604)" spreadMethod="reflect" x1="171.59354" y1="379.28671" x2="124.27649" y2="297.33118"/>
    <linearGradient inkscape:collect="always" xlink:href="#linearGradient5108" id="linearGradient5381" gradientUnits="userSpaceOnUse" spreadMethod="reflect" x1="125.76951" y1="367.71329" x2="184.56233" y2="367.71329"/>
  </defs>
  <g id="layer1" inkscape:groupmode="layer" inkscape:label="Layer 1" transform="translate(-70.669182,-209.72827)">
    <g id="g5366" transform="translate(-388.43868,106.6518)">
      <path style="color:#000000;fill:#333333;fill-opacity:1;fill-rule:nonzero;stroke:none;stroke-width:0.69999999;marker:none;visibility:visible;display:inline;overflow:visible;filter:url(#filter4985);enable-background:accumulate" d="m 479.10715,105.07647 186.42858,0 c 10.09071,0 18.21428,16.40643 18.21428,36.78572 0,20.37928 -8.12603,36.563 -18.21428,36.78571 -62.14286,1.37189 -124.28572,1.48433 -186.42858,0 -10.08783,-0.24096 -18.21429,-16.40643 -18.21429,-36.78571 0,-20.37929 8.12358,-36.78572 18.21429,-36.78572 z" id="path4975" inkscape:connector-curvature="0" sodipodi:nodetypes="sssssss" transform="translate(2.8356933e-6,0)"/>
      <path sodipodi:nodetypes="sssssss" inkscape:connector-curvature="0" id="path4844" d="m 479.10715,103.07647 186.42858,0 c 10.09071,0 18.21428,16.40643 18.21428,36.78572 0,20.37928 -8.12603,36.563 -18.21428,36.78571 -62.14286,1.37189 -124.28572,1.48433 -186.42858,0 -10.08783,-0.24096 -18.21429,-16.40643 -18.21429,-36.78571 0,-20.37929 8.12358,-36.78572 18.21429,-36.78572 z" style="color:#000000;fill:#dfaa75;fill-opacity:1;fill-rule:nonzero;stroke:none;stroke-width:0.69999999;marker:none;visibility:visible;display:inline;overflow:visible;enable-background:accumulate"/>
      <path style="color:#000000;fill:url(#pattern4989);fill-opacity:1;fill-rule:nonzero;stroke:none;stroke-width:0.69999999;marker:none;visibility:visible;display:inline;overflow:visible;enable-background:accumulate" d="m 489.9797,113.17799 170.08393,0 c 14.54279,0 19.1385,11.33555 16.61739,26.8292 -2.38715,14.67042 -7.41362,26.66677 -16.61739,26.8292 -56.69465,1.00057 -113.38928,1.08257 -170.08393,0 -9.2034,-0.17574 -14.49373,3.23921 -18.13264,-11.17183 -5.06167,-20.04556 -12.17312,-42.48657 18.13264,-42.48657 z" id="rect3031" inkscape:connector-curvature="0" sodipodi:nodetypes="sssssss"/>
      <rect ry="6.428566" rx="7.8571777" y="107.36218" x="523.21429" height="65" width="98.214287" id="rect4965" style="opacity:0.28372097;color:#000000;fill:#ca8339;fill-opacity:1;fill-rule:nonzero;stroke:none;stroke-width:0.69999999;marker:none;visibility:visible;display:inline;overflow:visible;filter:url(#filter4961);enable-background:accumulate" transform="matrix(1.0401177,0,0,1.002595,-22.96022,-0.3629326)"/>
      <rect style="opacity:0.41395347;color:#000000;fill:url(#linearGradient5373);fill-opacity:1;fill-rule:nonzero;stroke:none;stroke-width:0.69999999;marker:none;visibility:visible;display:inline;overflow:visible;filter:url(#filter4961);enable-background:accumulate" id="rect3034" width="98.214287" height="65" x="523.21429" y="107.36218" rx="7.8571777" ry="6.428566" transform="matrix(1,0,0,0.89423951,0,14.791893)"/>
    </g>
    <g id="g4780"/>
    <g id="g5358" transform="translate(5e-5,5.0000488)">
      <path id="path5020" d="m 184.09375,330.02682 c -42.40507,0 -87.745121,1.58358 -105.86272,29.00008 -7.674272,11.61311 -3.41853,41.95265 -3.41853,55.90617 0,46.89531 48.9142,84.90625 109.28125,84.90625 60.36707,0 108.30235,-38.01094 108.30235,-84.90625 0,-17.45074 6.35431,-46.8032 -5.26748,-60.29256 -19.6094,-22.76055 -65.13166,-24.61369 -103.03487,-24.61369 z m 0,37.65625 c 33.58866,0 60.84375,21.15712 60.84375,47.25 0,26.09288 -27.25509,47.25 -60.84375,47.25 -33.58865,0 -60.8125,-21.15712 -60.8125,-47.25 0,-26.09288 27.22385,-47.25 60.8125,-47.25 z" style="color:#000000;fill:url(#linearGradient5375);fill-opacity:1;fill-rule:nonzero;stroke:none;stroke-width:0.69999999;marker:none;visibility:visible;display:inline;overflow:visible;enable-background:accumulate" inkscape:connector-curvature="0" sodipodi:nodetypes="ssssssssssss"/>
      <path style="color:#000000;fill:url(#linearGradient5377);fill-opacity:1;fill-rule:nonzero;stroke:none;stroke-width:0.69999999;marker:none;visibility:visible;display:inline;overflow:visible;enable-background:accumulate" d="m 184.09375,293.15625 c -60.36705,0 -109.28125,38.01094 -109.28125,84.90625 0,46.89531 48.9142,84.90625 109.28125,84.90625 60.36707,0 109.3125,-38.01094 109.3125,-84.90625 0,-46.89531 -48.94543,-84.90625 -109.3125,-84.90625 z m 0,37.65625 c 33.58866,0 60.84375,21.15712 60.84375,47.25 0,26.09288 -27.25509,47.25 -60.84375,47.25 -33.58865,0 -60.8125,-21.15712 -60.8125,-47.25 0,-26.09288 27.22385,-47.25 60.8125,-47.25 z" id="path5007" inkscape:connector-curvature="0"/>
      <path style="font-size:medium;font-style:normal;font-variant:normal;font-weight:normal;font-stretch:normal;text-indent:0;text-align:start;text-decoration:none;line-height:normal;letter-spacing:normal;word-spacing:normal;text-transform:none;direction:ltr;block-progression:tb;writing-mode:lr-tb;text-anchor:start;baseline-shift:baseline;color:#000000;fill:url(#linearGradient5379);fill-opacity:1;stroke:none;stroke-width:0.91221732px;marker:none;visibility:visible;display:inline;overflow:visible;enable-background:accumulate;font-family:Sans;-inkscape-font-specification:Sans" d="m 181.686,294.48621 c -12.49699,0.12389 -25.11783,1.94457 -37.31239,5.61812 -55.426588,16.69698 -83.91146,66.60349 -62.415157,109.72221 21.372587,42.87058 85.265437,64.91836 140.457397,48.29128 54.87355,-16.53116 83.07671,-65.95905 61.7938,-108.6477 -21.15982,-42.44175 -84.38817,-64.26171 -139.02828,-47.80008 -54.323278,16.36619 -82.305179,65.31245 -61.234579,107.5732 20.948119,42.01509 83.632399,63.60587 137.723429,47.30887 53.77582,-16.20203 81.41045,-64.63297 60.55109,-106.46799 -20.73748,-41.5906 -82.74955,-62.98158 -136.29431,-46.84837 -53.231127,16.03871 -80.609996,63.98204 -59.960804,105.39349 20.527934,41.16828 81.926074,62.32742 134.927334,46.35717 52.68924,-15.87624 79.74846,-63.32894 59.30838,-104.31899 -20.31945,-40.74812 -81.03766,-61.67408 -133.49822,-45.86597 -52.150133,15.71458 -78.981215,62.67368 -58.749157,103.24448 20.112027,40.33015 80.239657,61.083 132.162307,45.43617 51.61379,-15.55376 78.15289,-62.07762 58.1278,-102.23138 -19.90569,-39.9143 -79.43887,-60.43131 -130.82639,-44.94496 -51.08027,15.39377 -77.325647,61.41802 -57.506447,101.15687 19.700397,39.50064 78.573157,59.81119 129.428337,44.48447 50.54954,-15.23461 76.5616,-60.78696 56.94723,-100.11307 -19.49621,-39.08917 -77.76681,-59.1612 -128.09243,-43.99327 -50.021575,15.07628 -75.736494,60.12302 -56.325867,99.03857 19.293057,38.67982 76.957657,58.54272 126.756507,43.53276 49.4964,-14.91879 74.91246,-59.4876 55.70452,-97.99476 -19.09098,-38.27268 -76.11466,-57.95578 -125.38953,-43.10296 -48.974031,14.76213 -74.151644,58.88073 -55.145296,96.98166 18.889986,37.86769 75.330996,57.33897 124.084686,42.64245 48.45444,-14.60629 73.39187,-58.24099 54.58607,-95.93785 -18.69006,-37.46487 -74.57562,-56.75368 -122.8109,-42.21266 -47.93762,14.45131 -72.602114,57.66049 -53.995789,94.95545 18.491199,37.06421 73.786389,56.10786 121.506059,41.72146 47.4236,-14.29714 71.78236,-57.01642 53.37443,-93.91165 -18.29342,-36.66572 -72.93224,-55.49353 -120.13907,-41.26095 -46.91238,14.1438 -71.056881,56.37017 -52.846285,92.86784 18.096705,36.26941 72.199575,54.91076 118.896365,40.83115 46.40394,-13.9913 70.27033,-55.78315 52.25599,-91.88544 -17.90104,-35.87524 -71.40198,-54.32879 -117.59152,-40.40135 -45.89828,13.83964 -69.484843,55.19397 -51.665701,90.90304 17.706481,35.48325 70.601601,53.74768 116.286671,39.97155 45.3954,-13.6888 68.7315,-54.60264 51.10648,-89.92063 -17.51296,-35.09345 -69.86056,-53.1367 -115.04395,-39.51105 -44.89533,13.5388 -67.948175,53.97843 -50.5162,88.90753 17.32053,34.70578 69.05461,52.55726 113.73911,39.08124 44.39804,-13.38961 67.22802,-53.38276 49.98805,-87.92512 -17.12918,-34.32031 -68.308,-51.94794 -112.49641,-38.62074 -43.90353,13.24126 -66.4779,52.78492 -49.42882,86.94272 16.93887,33.93698 67.55859,51.37013 111.25369,38.19094 43.41181,-13.09377 65.72887,-52.21561 48.8696,-85.99102 -16.74964,-33.55583 -66.80641,-50.79318 -110.01097,-37.76114 -42.92289,12.94709 -64.98087,51.61343 -48.31039,85.00861 16.56148,33.17685 66.02038,50.24776 108.7372,37.36204 42.43674,-12.80123 64.26501,-51.0398 47.78223,-84.05691 -16.37439,-32.80002 -65.29369,-49.67246 -107.52555,-36.93223 -41.9534,12.65621 -63.519173,50.46398 -47.22302,83.1052 16.18838,32.42537 64.53314,49.098 106.28285,36.50244 41.47282,-12.51204 62.80545,-49.88601 46.69486,-82.15351 -16.00343,-32.05288 -63.80087,-48.52437 -105.0712,-36.07263 -40.99505,12.36868 -62.06175,49.30587 -46.13564,81.2018 15.81956,31.68257 63.06581,47.95158 103.85956,35.64283 40.52005,-12.22616 61.35017,-48.72355 45.60749,-80.25009 -15.63677,-31.31441 -62.35905,-47.41031 -102.67899,-35.24373 -40.04785,12.08447 -60.639668,48.16977 -45.07934,79.32909 15.45502,30.94842 61.64949,46.86989 101.49841,34.84463 39.57844,-11.94362 59.93023,-47.61384 44.55119,-78.40809 -15.27436,-30.58461 -60.87501,-46.33028 -100.2557,-34.44553 -39.1118,11.80359 -59.252953,47.05572 -44.0541,77.48709 15.09475,30.22296 60.15986,45.7915 99.07512,34.04642 38.64795,-11.66441 58.5146,-46.49544 43.49488,-76.56608 -14.91623,-29.86348 -59.41087,-45.22286 -97.86348,-33.61662 -38.1869,11.52605 -57.870509,45.93299 -43.02886,75.64507 14.73878,29.50617 58.7523,44.65506 96.74504,33.18683 37.72864,-11.38852 57.1343,-45.36837 42.46964,-74.72408 -14.56239,-29.151 -58.05986,-44.11878 -95.59553,-32.78772 -37.27315,11.25182 -56.39914,44.80159 -41.91042,73.80307 14.38708,28.79804 57.33357,43.61405 94.41495,32.41932 36.82046,-11.11594 55.75827,-44.29404 41.44441,-72.94347 -14.21284,-28.44721 -56.66663,-43.04873 -93.29652,-31.98952 -36.37056,10.98093 -55.05632,43.75364 -40.91625,72.05317 14.03966,28.09857 55.93476,42.51494 92.11594,31.59042 35.92344,-10.84672 54.38653,-43.21106 40.41917,-71.16287 -13.86757,-27.75208 -55.26226,-42.01271 -90.9975,-31.22201 -35.47912,10.71334 -53.68673,42.66631 -39.89102,70.27256 13.69651,27.40777 54.55588,41.542 89.848,30.88431 35.03756,-10.5808 53.0812,-42.18078 39.45607,-69.44365 -13.52656,-27.06562 -53.90887,-40.98001 -88.76063,-30.45452 -34.59882,10.44912 -52.38354,41.63172 -38.92792,68.55336 13.35766,26.72564 53.19693,40.48025 87.61112,30.08611 34.16286,-10.31824 51.7491,-41.11117 38.4619,-67.69375 -13.18984,-26.38782 -52.54432,-39.98134 -86.52374,-29.71771 -33.72967,10.18819 -51.08465,40.58845 -37.96482,66.83415 13.02308,26.05217 51.88894,39.45255 85.43637,29.3186 33.29928,-10.05897 50.42127,-40.06357 37.46774,-65.97454 -12.85742,-25.7187 -51.23077,-38.95529 -84.34901,-28.95021 -32.87168,9.93061 -49.79001,39.56722 -37.00171,65.14564 12.69278,25.38739 50.5698,38.42817 83.26163,28.55111 32.44687,-9.80306 49.12878,-39.03801 36.50463,-64.28604 -12.52924,-25.05824 -49.90606,-37.93257 -82.17426,-28.1827 -32.02484,9.67635 -48.46861,38.53732 -36.00755,63.45713 12.36677,24.73126 49.23952,37.43782 81.08689,27.81431 31.6056,-9.55046 47.87163,-38.03447 35.5726,-62.62824 -12.20538,-24.40643 -48.63233,-36.94388 -80.06165,-27.4459 -31.18914,9.42542 -47.21362,37.52945 -35.07551,61.79933 12.04504,24.0838 47.99128,36.4508 79.00534,27.0775 12.14034,-3.66914 21.9198,-10.22473 28.61342,-18.26657 -5.86953,6.53478 -13.84956,11.8603 -23.20763,15.38076 -0.12639,0.0476 -0.24593,0.10661 -0.37281,0.1535 -1.7613,0.70224 -3.59024,1.36662 -5.46793,1.93411 -30.43072,9.19699 -65.69488,-2.95404 -77.51409,-26.5863 -11.91131,-23.81642 3.81482,-51.44425 34.42309,-60.69412 13.16205,-3.9776 27.23546,-4.01625 39.95316,-0.89031 0.29139,0.068 0.58038,0.14362 0.86989,0.2149 0.0315,0.008 0.0616,0.0225 0.0932,0.0306 0.0418,0.0103 0.0826,0.0203 0.12427,0.0307 24.23761,6.04753 41.75508,23.52377 41.75508,44.14677 0,4.6054 -0.88952,9.03342 -2.51649,13.23175 -0.15443,0.39852 -0.2981,0.80336 -0.46601,1.1973 -5.37957,13.48829 -18.2353,25.10801 -36.13182,30.51591 -31.26404,9.44725 -67.5168,-3.07409 -79.65777,-27.3538 -12.23432,-24.46637 3.94227,-52.8204 35.38619,-62.32123 31.68489,-9.57362 68.4417,3.08484 80.74514,27.6915 12.39743,24.7946 -3.98626,53.55328 -35.85221,63.18084 -32.10849,9.70082 -69.33442,-3.1241 -81.80144,-28.05991 -12.56159,-25.12497 4.02748,-54.25463 36.31823,-64.00973 32.53491,-9.82886 70.2261,3.1612 82.85774,28.4283 12.72684,25.45754 -4.09698,54.98584 -36.81531,64.86934 -32.9641,9.95772 -71.14778,-3.22684 -83.94512,-28.8274 -12.89315,-25.79226 4.13261,-55.68554 37.28133,-65.69825 33.3961,-10.08743 72.13054,3.2289 85.09463,29.16511 13.06053,26.12915 -4.22761,56.41508 -37.80948,66.55785 -33.83088,10.21797 -73.05007,-3.2595 -86.182,-29.53351 -13.22899,-26.4682 4.28872,-57.14381 38.30656,-67.41745 34.26844,-10.34933 73.96854,3.31863 87.26937,29.93261 13.39852,26.80943 -4.31601,57.87169 -38.77258,68.27705 -34.70879,10.48153 -74.94806,-3.37559 -88.41887,-30.33171 -13.56912,-27.15281 4.40263,-58.59876 39.30073,-69.13666 35.15193,-10.61455 75.89544,3.39968 89.53732,30.70012 13.74076,27.49836 -4.42433,59.38637 -39.76675,70.05766 -35.59786,10.74842 -76.90391,-3.48302 -90.7179,-31.12992 -13.91351,-27.84609 4.53645,-60.11176 40.32597,-70.91726 36.04657,-10.8831 77.8181,3.53347 91.80527,31.52902 14.08732,28.19598 -4.58364,60.86702 -40.82305,71.80756 -36.49807,11.01863 -78.79335,-3.55107 -92.95478,-31.89742 -14.26218,-28.54804 4.62805,-61.65216 41.32014,-72.72857 36.95236,-11.15498 79.76753,3.5972 94.10428,32.29652 14.43814,28.90226 -4.66965,62.40575 -41.81722,73.61888 -37.40944,11.29216 -80.74064,-3.67186 -95.25379,-32.72632 -14.61514,-29.25867 4.70848,-63.15853 42.31431,-74.50918 37.86929,-11.43018 81.77482,3.71365 96.46543,33.12542 14.79323,29.61721 -4.80667,63.94116 -42.87353,75.43018 -38.33195,11.56904 -82.77686,-3.75329 -97.646,-33.52452 -14.972395,-29.97795 4.87098,-64.72296 43.40167,-76.35118 38.7974,-11.70871 83.74677,3.79074 98.79552,33.92362 15.15261,30.34084 -4.90145,65.50393 -43.89876,77.27219 -39.26563,11.84923 -84.74666,-3.82604 -99.97609,-34.32273 -15.333914,-30.7059 4.96019,-66.28407 44.42691,-78.19319 39.73663,-11.99056 85.77654,3.85916 101.18773,34.72183 15.51626,31.07312 -5.04722,67.09407 -44.98613,79.14489 -40.21045,12.13274 -86.80538,-3.92082 -102.39938,-35.15163 -15.699702,-31.44251 5.10041,-67.90326 45.51429,-80.09659 40.68704,-12.27577 87.8642,3.98031 103.64208,35.58143 15.88421,31.81408 -5.15078,68.7116 -46.04243,81.0483 -41.16642,12.41958 -88.89089,-4.03764 -104.85373,-36.01124 -16.069776,-32.18779 5.22944,-69.5191 46.60166,-82 41.64858,-12.56425 89.88543,4.0928 106.0343,36.44103 16.25642,32.5637 -5.24319,70.29509 -47.09874,82.92101 -42.13354,12.70978 -91.00319,-4.1151 -107.33915,-36.84014 -16.444141,-32.94176 5.34734,-71.10093 47.68903,-83.87271 42.62127,-12.85609 92.05774,4.16592 108.58186,37.26994 16.63293,33.32199 -5.44871,71.93665 -48.27932,84.85512 -43.1118,13.00327 -93.08015,-4.24526 -109.7935,-37.73044 -16.822781,-33.70438 5.48515,-72.74084 48.80747,-85.80682 43.60512,-13.15126 94.16361,4.26106 111.06728,38.12954 17.0137,34.08894 -5.5499,73.6056 -49.36669,86.81992 -44.10122,13.3001 -95.21496,-4.30537 -112.30999,-38.55934 -17.205696,-34.47567 5.61181,-74.46951 49.9259,-87.83303 44.60011,-13.44974 96.26522,4.37824 113.55271,39.01985 17.39875,34.86457 -5.6399,75.3019 -50.45406,88.81543 -45.10179,13.60025 -97.37655,-4.44894 -114.85755,-39.48035 -17.592893,-35.25564 5.72732,-76.10277 51.04435,-89.76713 45.60625,-13.75159 98.42467,4.45604 116.10026,39.87945 17.78809,35.64886 -5.78091,76.96419 -51.60357,90.78023 -46.11351,13.90373 -99.5028,-4.49169 -117.374043,-40.30925 -17.984372,-36.04426 5.831683,-77.82479 52.162793,-91.79334 46.62355,-14.05674 100.64199,4.55589 118.70995,40.76975 18.18171,36.44183 -5.94182,78.68454 -52.78414,92.80645 -47.13638,14.21054 -101.71796,-4.64862 -119.983737,-41.26095 -18.380121,-36.84157 5.987037,-79.51279 53.343367,-93.78885 47.652,-14.3652 102.82394,4.67776 121.28858,41.69075 18.57961,37.24345 -6.02945,80.3709 -53.90258,94.80195 -48.1704,14.52069 -103.99099,-4.70475 -122.655569,-42.12055 -18.780165,-37.64753 6.131229,-81.25884 54.523939,-95.84576 48.6916,-14.67701 105.09483,4.76028 123.96041,42.58106 18.98178,38.05376 -6.19915,82.14599 -55.11423,96.88956 -49.21557,14.83415 -106.22866,-4.81363 -125.296321,-43.04156 -19.184473,-38.46215 6.264277,-83.03229 55.704521,-97.93336 49.74234,-14.99213 107.39249,4.89551 126.6633,43.53276 19.38823,38.87271 -6.32661,83.91776 -56.2948,98.97716 -50.27189,15.15094 -108.55527,-4.94454 -128.03029,-43.99326 -19.593077,-39.28546 6.417239,-84.8331 56.91616,-100.05167 50.80425,-15.31058 109.65484,4.99138 129.33513,44.45377 19.79898,39.70034 -6.44293,85.7169 -57.47538,101.09547 -51.33936,15.47105 -110.84652,-5.03606 -130.73318,-44.91427 -20.005945,-40.1174 6.52798,-86.59988 58.09673,-102.13927 51.8773,-15.63236 112.00608,5.10929 132.10017,45.40546 20.21399,40.53665 -6.61022,87.48204 -58.71809,103.18309 -52.41799,15.7945 -113.13349,-5.18033 -133.43608,-45.89667 -20.423108,-40.95804 6.658634,-88.39405 59.30838,-104.25759 52.96148,-15.95748 114.32199,5.21853 134.83413,46.35717 20.63329,41.38162 -6.73533,89.30522 -59.92973,105.33209 -53.50778,16.12127 -115.47834,-5.25453 -136.201117,-46.81767 -20.844546,-41.80735 6.778153,-90.21557 60.520017,-106.4066 54.05685,-16.28591 116.69574,5.31909 137.63023,47.30888 21.05687,42.23525 -6.88032,91.1558 -61.17244,107.5118 -54.6087,16.45137 -117.84995,-5.38147 -138.997212,-47.80008 -21.270269,-42.66532 6.917575,-92.09517 61.762732,-108.617 55.16334,-16.61767 119.06522,5.41099 140.42633,48.26058 8.26975,16.58878 9.58101,35.08369 3.72813,52.28229 l 1.11844,0.2456 c 5.91424,-17.37892 4.56633,-36.04117 -3.79027,-52.80419 -16.18983,-32.47619 -56.54597,-53.13172 -99.23046,-54.3392 -1.77852,-0.0503 -3.55837,-0.0791 -5.34366,-0.0614 z m -53.96472,101.15688 c 0.078,0.1613 0.13697,0.33024 0.21748,0.4912 0.17398,0.3478 0.37511,0.67035 0.55922,1.0131 -0.27531,-0.49903 -0.52376,-0.99651 -0.7767,-1.5043 z m 0.7767,1.5043 c 10.28732,19.15161 36.22415,30.37066 61.91807,28.09061 -2.03255,0.15826 -4.09544,0.2456 -6.18249,0.2456 -25.04459,0 -46.5495,-11.68488 -55.73558,-28.33621 z" id="path5022" inkscape:connector-curvature="0"/>
      <path style="color:#000000;fill:url(#linearGradient5381);fill-opacity:1;fill-rule:nonzero;stroke:none;stroke-width:0.69999999;marker:none;visibility:visible;display:inline;overflow:visible;enable-background:accumulate" d="m 185.72303,332.86406 c -33.94774,0 -59.95352,18.34771 -59.95352,44.71954 0,7.7276 2.31649,17.80674 6.51174,24.26461 10.11653,-15.5927 25.89476,-28.06696 49.90625,-28.06696 24.01417,0 39.79097,13.18572 49.90625,28.78125 4.19302,-6.45651 11.5625,-16.24335 11.5625,-23.96875 0,-26.37183 -23.98548,-45.72969 -57.93322,-45.72969 z" id="path4991" inkscape:connector-curvature="0" sodipodi:nodetypes="sscscss"/>
      <path style="fill:#000000;stroke:#000000;stroke-width:0.99999994px;stroke-linecap:round;stroke-linejoin:round;stroke-opacity:1" d="m 288.72217,402.05761 0,33.63033" id="path5078" inkscape:connector-curvature="0"/>
      <path style="color:#000000;fill:#65645f;fill-opacity:1;fill-rule:nonzero;stroke:none;stroke-width:0.69999999;marker:none;visibility:visible;display:inline;overflow:visible;enable-background:accumulate" d="m 177.253,330.24977 c -2.60857,0.34526 -5.23041,0.59168 -7.81761,1.08448 -1.78084,0.29124 -3.53809,0.72413 -5.28,1.18792 -3.57967,1.07801 -7.16391,2.19413 -10.5828,3.71788 -2.65635,1.18143 -5.23055,2.53377 -7.73363,4.01131 -1.70937,1.06883 -3.38636,2.18947 -4.98773,3.41469 -2.67159,1.97679 -5.04939,4.31854 -7.35638,6.70207 -2.42751,2.6303 -4.50642,5.57746 -6.21208,8.724 -1.92396,3.46436 -3.36746,7.19744 -4.22618,11.06807 -0.51882,2.53241 -0.82831,5.11025 -0.85947,7.69761 -0.0214,5.2604 1.11854,10.49877 3.14365,15.34617 0.92348,2.36625 2.18836,4.58089 3.50456,6.74535 1.40727,2.05879 3.04528,3.94553 4.60801,5.88579 2.19589,2.64734 4.96163,4.73054 7.65115,6.84351 3.60379,2.66206 7.49223,4.93439 11.5866,6.75488 3.99662,1.91263 8.25421,3.19287 12.50259,4.41075 4.39529,1.08828 8.89136,1.75039 13.40188,2.11636 3.12763,0.20737 6.26622,0.17984 9.39653,0.046 3.96204,-0.26032 7.92921,-0.60148 11.8242,-1.40208 6.09875,-1.24252 11.98423,-3.38945 17.61307,-6.02186 2.78057,-1.30133 5.40332,-2.90457 7.93302,-4.63798 2.56393,-1.71906 4.99795,-3.64091 7.16015,-5.84868 2.32422,-2.36991 4.47149,-4.91856 6.41594,-7.60844 1.92785,-2.79643 3.57039,-5.81307 4.63242,-9.04813 1.44948,-3.88564 2.18947,-8.00262 2.49534,-12.12866 0.0555,-2.31466 -0.11909,-4.62902 -0.53045,-6.90757 -0.65195,-4.49675 -2.07147,-8.88273 -4.24761,-12.87505 -1.74144,-3.30127 -3.99193,-6.31916 -6.5025,-9.0742 -1.49826,-1.68717 -3.11991,-3.25816 -4.8642,-4.69011 -2.47103,-2.11893 -5.12312,-4.02005 -7.9082,-5.7044 -2.71622,-1.68308 -5.62774,-3.02617 -8.54783,-4.31227 -2.79703,-1.2088 -5.71169,-2.11993 -8.63421,-2.97131 -3.18744,-0.86839 -6.43007,-1.55265 -9.70003,-2.02222 -3.79812,-0.42222 -7.606,-0.78775 -11.42935,-0.85625 -1.5888,-0.0826 -3.17835,-0.0363 -4.75527,0.1787 -0.56453,0.0579 -1.12905,0.11579 -1.69358,0.17369 z m 10.57928,4.12304 c 3.73958,0.30829 7.47161,0.76688 11.15986,1.45912 3.83642,0.75289 7.54132,2.03575 11.18824,3.42169 2.03108,0.774 3.96983,1.76059 5.87298,2.80649 3.09675,1.64002 6.16923,3.39135 8.82031,5.70547 3.46846,2.85654 6.67783,6.09833 9.05071,9.93771 2.09273,3.22255 3.85593,6.67715 5.05323,10.33302 0.65822,2.15026 1.06902,4.37312 1.30358,6.60806 0.20862,2.38712 0.33935,4.79883 -0.0117,7.17919 -0.29167,2.3451 -0.88532,4.64371 -1.52243,6.91586 -1.29687,3.72354 -2.98715,7.3363 -5.25577,10.57067 -1.50927,2.09791 -3.35143,3.92666 -5.11123,5.8109 -2.3243,2.60099 -5.20906,4.60987 -8.15304,6.4447 -4.09284,2.56628 -8.40035,4.85131 -12.99927,6.36963 -3.81198,1.28985 -7.66091,2.55862 -11.65727,3.13519 -5.28454,0.88141 -10.67116,0.78798 -16.00566,0.56266 -2.96835,-0.19711 -5.94737,-0.42432 -8.85006,-1.11172 -3.87103,-0.85823 -7.73663,-1.8017 -11.46947,-3.15036 -2.68554,-1.04887 -5.28335,-2.31205 -7.86915,-3.58382 -2.21818,-1.13956 -4.30775,-2.51281 -6.24937,-4.077 -2.20698,-1.69559 -4.28379,-3.55308 -6.38741,-5.37361 -1.53335,-1.59205 -2.50841,-3.63 -4.09108,-5.17778 -1.23709,-1.44493 -2.0333,-3.18928 -2.95112,-4.83939 -0.89866,-1.7651 -1.76583,-3.56069 -2.42405,-5.42859 -0.56182,-2.07519 -1.08789,-4.17844 -1.19875,-6.33412 -0.12395,-1.26813 -0.53295,-2.49424 -0.48958,-3.77976 -0.0109,-2.34963 0.41544,-4.67115 0.76867,-6.98626 0.38544,-2.30273 1.06559,-4.55342 2.07477,-6.66103 1.10838,-2.46271 2.12325,-4.99398 3.70868,-7.20125 1.19113,-1.86046 2.56343,-3.59435 4.05096,-5.22553 0.84137,-1.00357 1.60599,-2.13205 2.78348,-2.7743 1.03866,-0.65934 2.00596,-1.43032 2.78598,-2.38768 0.99881,-0.831 2.05213,-1.60176 3.10295,-2.36176 2.78279,-1.6418 5.69874,-3.05678 8.40321,-4.82959 0.93722,-0.47273 2.00854,-0.60227 2.90851,-1.15061 0.9529,-0.44298 1.92105,-0.88484 2.96147,-1.07035 1.04238,-0.14219 1.78325,-0.91312 2.83283,-0.97542 1.00923,-0.091 1.84752,-0.68021 2.80335,-0.57508 0.59619,0.0784 1.06267,-0.12703 1.47023,-0.44746 1.05658,0.0936 1.92489,-0.7831 2.99959,-0.60727 1.03101,0.0872 1.95027,-0.31158 2.95002,-0.53465 0.98009,-0.17174 1.98848,-0.0757 2.96272,-0.30383 2.07415,-0.12673 4.13742,-0.44074 6.22038,-0.43835 1.49131,-0.0777 2.9727,0.0168 4.45973,0.12621 z" id="path4995" inkscape:connector-curvature="0"/>
    </g>
  </g>
  <metadata>
    <rdf:RDF>
      <cc:Work>
        <dc:format>image/svg+xml</dc:format>
        <dc:type rdf:resource="http://purl.org/dc/dcmitype/StillImage"/>
        <cc:license rdf:resource="http://creativecommons.org/licenses/publicdomain/"/>
        <dc:publisher>
          <cc:Agent rdf:about="http://openclipart.org/">
            <dc:title>Open Clip Art Library</dc:title>
          </cc:Agent>
        </dc:publisher>
        <dc:title>Pleistras, izoliacija, lipni juosta</dc:title>
        <dc:date>2012-04-05T11:58:08</dc:date>
        <dc:description>Patch isolation, self-adhesive tape</dc:description>
        <dc:source>http://openclipart.org/detail/169350/pleistras-izoliacija-lipni-juosta-by-keistutis</dc:source>
        <dc:creator>
          <cc:Agent>
            <dc:title>Keistutis</dc:title>
          </cc:Agent>
        </dc:creator>
        <dc:subject>
          <rdf:Bag>
            <rdf:li>Patch isolation</rdf:li>
            <rdf:li>Pleistras</rdf:li>
            <rdf:li>clip art</rdf:li>
            <rdf:li>clipart</rdf:li>
            <rdf:li>izoliacija</rdf:li>
            <rdf:li>lipni juosta</rdf:li>
            <rdf:li>self-adhesive tape</rdf:li>
          </rdf:Bag>
        </dc:subject>
      </cc:Work>
      <cc:License rdf:about="http://creativecommons.org/licenses/publicdomain/">
        <cc:permits rdf:resource="http://creativecommons.org/ns#Reproduction"/>
        <cc:permits rdf:resource="http://creativecommons.org/ns#Distribution"/>
        <cc:permits rdf:resource="http://creativecommons.org/ns#DerivativeWorks"/>
      </cc:License>
    </rdf:RDF>
  </metadata>
</svg>
