<?xml version="1.0" encoding="UTF-8" standalone="no"?>
<!-- Created with Inkscape (http://www.inkscape.org/) -->

<svg
   xmlns:dc="http://purl.org/dc/elements/1.1/"
   xmlns:cc="http://creativecommons.org/ns#"
   xmlns:rdf="http://www.w3.org/1999/02/22-rdf-syntax-ns#"
   xmlns:svg="http://www.w3.org/2000/svg"
   xmlns="http://www.w3.org/2000/svg"
   xmlns:sodipodi="http://sodipodi.sourceforge.net/DTD/sodipodi-0.dtd"
   xmlns:inkscape="http://www.inkscape.org/namespaces/inkscape"
   width="1052.3622"
   height="744.09448"
   id="svg3830"
   version="1.1"
   inkscape:version="0.48.2 r9819"
   sodipodi:docname="Documento nuevo 2">
  <defs
     id="defs3832" />
  <sodipodi:namedview
     id="base"
     pagecolor="#ffffff"
     bordercolor="#666666"
     borderopacity="1.0"
     inkscape:pageopacity="0.0"
     inkscape:pageshadow="2"
     inkscape:zoom="0.36388421"
     inkscape:cx="369.96094"
     inkscape:cy="298.78972"
     inkscape:document-units="px"
     inkscape:current-layer="layer1"
     showgrid="false"
     inkscape:window-width="1024"
     inkscape:window-height="552"
     inkscape:window-x="0"
     inkscape:window-y="26"
     inkscape:window-maximized="1" />
  <metadata
     id="metadata3835">
    <rdf:RDF>
      <cc:Work
         rdf:about="">
        <dc:format>image/svg+xml</dc:format>
        <dc:type
           rdf:resource="http://purl.org/dc/dcmitype/StillImage" />
        <dc:title></dc:title>
      </cc:Work>
    </rdf:RDF>
  </metadata>
  <g
     inkscape:label="Capa 1"
     inkscape:groupmode="layer"
     id="layer1"
     transform="translate(0,-308.2677)">
    <g
       transform="matrix(2.9609801,0,0,2.9609801,-51.708363,553.81417)"
       style="fill:#f8c1af;fill-opacity:1;display:inline"
       id="g4595-6-1-03-8">
      <g
         id="g3790-9-3-1-3-9"
         transform="matrix(1.1017413,0,0,1.1022989,-4.9634395,-0.21507374)"
         style="fill:#999999;fill-opacity:1;stroke:#999999;stroke-width:3.06460857;stroke-miterlimit:4;stroke-opacity:1;stroke-dasharray:none">
        <g
           id="g4023-9-4-2-2-7"
           style="fill:#999999;fill-opacity:1;stroke:#999999;stroke-width:3.06460857;stroke-miterlimit:4;stroke-opacity:1;stroke-dasharray:none">
          <path
             style="font-size:58.25854492px;font-style:normal;font-weight:normal;line-height:125%;letter-spacing:0px;word-spacing:0px;opacity:0.5;fill:#999999;fill-opacity:1;stroke:#999999;stroke-width:3.06460857;stroke-miterlimit:4;stroke-opacity:1;stroke-dasharray:none;font-family:Sans"
             d="M 308.24679,68.009964 288.44402,49.408862 c -6.10359,-6.087657 -2.83756,-17.891203 5.43468,-20.130393 7.21325,-2.400012 14.47994,4.609988 14.35592,11.745808 -0.11676,-7.394629 7.75165,-14.509768 15.09589,-11.55767 8.15735,2.931911 10.90771,15.441061 3.68593,20.842425 z"
             inkscape:connector-curvature="0"
             sodipodi:nodetypes="ccccccc"
             inkscape:export-filename="/home/moteado/ManifestanteXXI/pegatinas/hackeame_demo.png"
             inkscape:export-xdpi="223.68402"
             inkscape:export-ydpi="223.68402"
             id="text3010-6-5-0-43-83" />
          <g
             style="font-size:44.71231079px;font-style:normal;font-weight:normal;line-height:125%;letter-spacing:0px;word-spacing:0px;opacity:0.5;fill:#999999;fill-opacity:1;stroke:#999999;stroke-width:3.06460857;stroke-miterlimit:4;stroke-opacity:1;stroke-dasharray:none;font-family:Sans"
             id="text3004-2-6-1-5-2">
            <path
               inkscape:connector-curvature="0"
               d="m 74.514526,66.374451 -4.541015,0 0,-16.650391 -16.259766,0 0,16.650391 -4.541016,0 0,-35.69336 4.541016,0 0,15.039063 16.259766,0 0,-15.039063 4.541015,0 0,35.69336"
               style="font-size:50px;fill:#999999;fill-opacity:1;stroke:#999999;stroke-width:3.06460857;stroke-miterlimit:4;stroke-opacity:1;stroke-dasharray:none;-inkscape-font-specification:Sans"
               id="path3906-6-6-0-4-64" />
            <path
               inkscape:connector-curvature="0"
               d="m 98.733276,66.374451 -0.90332,-3.710938 -0.195312,0 c -0.537128,0.732425 -1.074236,1.36719 -1.611329,1.904297 -0.537125,0.520835 -1.123062,0.952149 -1.757812,1.293945 -0.63478,0.341797 -1.342787,0.594076 -2.124024,0.756836 -0.781261,0.16276 -1.684581,0.24414 -2.70996,0.244141 -1.123056,-10e-7 -2.156584,-0.162761 -3.100586,-0.488281 -0.944017,-0.309245 -1.765956,-0.789388 -2.465821,-1.44043 -0.683597,-0.667316 -1.220706,-1.497393 -1.611328,-2.490234 -0.390627,-1.00911 -0.58594,-2.19726 -0.585937,-3.564454 -3e-6,-2.66926 0.935869,-4.720039 2.807617,-6.152343 1.888014,-1.432277 4.752594,-2.213526 8.59375,-2.34375 l 4.492187,-0.170899 0,-1.68457 c -1.8e-5,-1.090476 -0.122088,-2.001933 -0.366211,-2.734375 -0.227882,-0.732401 -0.569678,-1.318337 -1.02539,-1.757813 -0.43947,-0.455706 -0.992855,-0.781226 -1.660156,-0.976562 -0.651057,-0.195289 -1.399754,-0.292945 -2.246094,-0.292969 -1.350923,2.4e-5 -2.612315,0.195336 -3.78418,0.585938 -1.155607,0.390647 -2.270515,0.862652 -3.344726,1.416015 l -1.5625,-3.344726 c 1.204421,-0.651016 2.547193,-1.204401 4.02832,-1.660156 1.48111,-0.455703 3.03547,-0.683567 4.663086,-0.683594 1.660142,2.7e-5 3.092432,0.170925 4.296875,0.512695 1.220685,0.325547 2.22166,0.854518 3.002929,1.586914 0.797506,0.71617 1.391576,1.635766 1.782226,2.758789 0.3906,1.123068 0.58592,2.482117 0.58594,4.077149 l 0,18.359375 -3.198244,0 m -8.154297,-3.100586 c 0.992827,3e-6 1.912422,-0.154619 2.75879,-0.463867 0.846339,-0.309241 1.57876,-0.773108 2.197265,-1.391602 0.618473,-0.63476 1.098616,-1.424147 1.44043,-2.368164 0.358055,-0.960278 0.537091,-2.083324 0.537109,-3.369141 l 0,-2.416992 -3.491211,0.170899 c -1.464857,0.06512 -2.693697,0.227877 -3.686523,0.488281 -0.992849,0.260429 -1.790374,0.626639 -2.392578,1.098633 -0.585946,0.45574 -1.009122,1.017263 -1.269532,1.68457 -0.260423,0.651051 -0.390631,1.39161 -0.390625,2.22168 -6e-6,1.497401 0.390618,2.596033 1.171875,3.295898 0.797518,0.699873 1.839183,1.049808 3.125,1.049805"
               style="font-size:50px;fill:#999999;fill-opacity:1;stroke:#999999;stroke-width:3.06460857;stroke-miterlimit:4;stroke-opacity:1;stroke-dasharray:none;-inkscape-font-specification:Sans"
               id="path3908-0-6-3-1-5" />
            <path
               inkscape:connector-curvature="0"
               d="m 120.41296,66.862732 c -1.64389,-10e-7 -3.18197,-0.252279 -4.61425,-0.756836 -1.4323,-0.520833 -2.67742,-1.334634 -3.73536,-2.441406 -1.05794,-1.123043 -1.88802,-2.547196 -2.49023,-4.272461 -0.60222,-1.741528 -0.90332,-3.832997 -0.90332,-6.274414 0,-2.555323 0.30924,-4.720034 0.92773,-6.494141 0.61849,-1.790343 1.46484,-3.238909 2.53907,-4.345703 1.09048,-1.123022 2.36001,-1.936823 3.80859,-2.441406 1.44856,-0.504531 3.00292,-0.756809 4.66309,-0.756836 1.26951,2.7e-5 2.50649,0.138373 3.71093,0.415039 1.22069,0.276719 2.23794,0.618516 3.05176,1.02539 l -1.31836,3.759766 c -0.37437,-0.162738 -0.78941,-0.31736 -1.24511,-0.463867 -0.45575,-0.162738 -0.92776,-0.301084 -1.41602,-0.415039 -0.4883,-0.130185 -0.96844,-0.227842 -1.44043,-0.292969 -0.47202,-0.08136 -0.91961,-0.122047 -1.34277,-0.12207 -2.55535,2.3e-5 -4.41896,0.821962 -5.59082,2.46582 -1.17189,1.627624 -1.75782,4.166684 -1.75782,7.617188 0,3.434254 0.58593,5.9489 1.75782,7.543945 1.18814,1.57878 2.98664,2.368167 5.3955,2.368164 1.31835,3e-6 2.5065,-0.146481 3.56446,-0.439453 1.0742,-0.309241 2.05076,-0.667313 2.92968,-1.074219 l 0,3.955078 c -0.87892,0.472006 -1.82293,0.830078 -2.83203,1.074219 -0.99285,0.24414 -2.21355,0.36621 -3.66211,0.366211"
               style="font-size:50px;fill:#999999;fill-opacity:1;stroke:#999999;stroke-width:3.06460857;stroke-miterlimit:4;stroke-opacity:1;stroke-dasharray:none;-inkscape-font-specification:Sans"
               id="path3910-9-6-7-79-0" />
            <path
               inkscape:connector-curvature="0"
               d="m 137.40515,52.531677 3.2959,-4.15039 7.15332,-8.813477 5.15137,0 -9.79004,11.59668 10.44922,15.209961 -5.10254,0 -8.20313,-12.304688 -2.66113,2.001953 0,10.302735 -4.39453,0 0,-37.988282 4.39453,0 0,17.431641 -0.39062,6.713867 0.0976,0"
               style="font-size:50px;fill:#999999;fill-opacity:1;stroke:#999999;stroke-width:3.06460857;stroke-miterlimit:4;stroke-opacity:1;stroke-dasharray:none;-inkscape-font-specification:Sans"
               id="path3912-9-9-9-1-7" />
            <path
               inkscape:connector-curvature="0"
               d="m 168.70398,66.862732 c -1.79038,-10e-7 -3.42612,-0.301107 -4.90723,-0.90332 -1.48113,-0.602213 -2.75879,-1.481118 -3.833,-2.636719 -1.05795,-1.155595 -1.87989,-2.587885 -2.46583,-4.296875 -0.58594,-1.708975 -0.8789,-3.662098 -0.8789,-5.859375 0,-2.213526 0.26855,-4.191063 0.80566,-5.932617 0.53711,-1.741516 1.29394,-3.214496 2.27051,-4.418946 0.97656,-1.220678 2.14029,-2.148411 3.49121,-2.783203 1.36718,-0.634738 2.87271,-0.952121 4.5166,-0.952148 1.61132,2.7e-5 3.05988,0.292996 4.34571,0.878906 1.28578,0.569687 2.37628,1.383489 3.27148,2.441406 0.89516,1.04169 1.57875,2.303082 2.05078,3.78418 0.48826,1.464862 0.7324,3.092465 0.73242,4.882812 l 0,2.75879 -16.89453,0 c 0.0814,3.141285 0.74055,5.452481 1.97754,6.933593 1.25325,1.481124 3.10871,2.221683 5.56641,2.22168 0.83006,3e-6 1.59503,-0.04069 2.29492,-0.12207 0.71613,-0.08138 1.39972,-0.195309 2.05078,-0.341797 0.6673,-0.162757 1.3102,-0.358069 1.92871,-0.585938 0.61847,-0.244136 1.2451,-0.51269 1.87988,-0.805664 l 0,3.955078 c -0.65106,0.309246 -1.29396,0.577801 -1.92871,0.805664 -0.61851,0.227865 -1.26141,0.41504 -1.92871,0.561524 -0.65106,0.146484 -1.33465,0.252278 -2.05078,0.317383 -0.69988,0.0651 -1.46486,0.09766 -2.29492,0.09766 m -1.09863,-24.09668 c -1.85548,2.4e-5 -3.32846,0.634789 -4.41895,1.904297 -1.07423,1.269552 -1.70085,3.116881 -1.87988,5.541992 l 12.01172,0 c -2e-5,-1.106753 -0.11395,-2.115867 -0.3418,-3.027343 -0.21161,-0.927715 -0.5534,-1.717102 -1.02539,-2.368165 -0.45575,-0.651019 -1.04168,-1.155576 -1.75781,-1.513671 -0.71616,-0.35805 -1.57879,-0.537086 -2.58789,-0.53711"
               style="font-size:50px;fill:#999999;fill-opacity:1;stroke:#999999;stroke-width:3.06460857;stroke-miterlimit:4;stroke-opacity:1;stroke-dasharray:none;-inkscape-font-specification:Sans"
               id="path3914-8-2-3-14-2" />
            <path
               inkscape:connector-curvature="0"
               d="m 199.97839,66.374451 -0.90332,-3.710938 -0.19531,0 c -0.53713,0.732425 -1.07424,1.36719 -1.61133,1.904297 -0.53712,0.520835 -1.12306,0.952149 -1.75781,1.293945 -0.63478,0.341797 -1.34279,0.594076 -2.12402,0.756836 -0.78127,0.16276 -1.68458,0.24414 -2.70996,0.244141 -1.12306,-10e-7 -2.15659,-0.162761 -3.10059,-0.488281 -0.94402,-0.309245 -1.76596,-0.789388 -2.46582,-1.44043 -0.6836,-0.667316 -1.22071,-1.497393 -1.61133,-2.490234 -0.39063,-1.00911 -0.58594,-2.19726 -0.58594,-3.564454 0,-2.66926 0.93587,-4.720039 2.80762,-6.152343 1.88801,-1.432277 4.7526,-2.213526 8.59375,-2.34375 l 4.49219,-0.170899 0,-1.68457 c -2e-5,-1.090476 -0.12209,-2.001933 -0.36621,-2.734375 -0.22788,-0.732401 -0.56968,-1.318337 -1.02539,-1.757813 -0.43947,-0.455706 -0.99286,-0.781226 -1.66016,-0.976562 -0.65106,-0.195289 -1.39975,-0.292945 -2.24609,-0.292969 -1.35093,2.4e-5 -2.61232,0.195336 -3.78418,0.585938 -1.15561,0.390647 -2.27052,0.862652 -3.34473,1.416015 l -1.5625,-3.344726 c 1.20442,-0.651016 2.54719,-1.204401 4.02832,-1.660156 1.48111,-0.455703 3.03547,-0.683567 4.66309,-0.683594 1.66014,2.7e-5 3.09243,0.170925 4.29687,0.512695 1.22069,0.325547 2.22166,0.854518 3.00293,1.586914 0.79751,0.71617 1.39158,1.635766 1.78223,2.758789 0.3906,1.123068 0.58591,2.482117 0.58594,4.077149 l 0,18.359375 -3.19825,0 m -8.15429,-3.100586 c 0.99282,3e-6 1.91242,-0.154619 2.75879,-0.463867 0.84634,-0.309241 1.57876,-0.773108 2.19726,-1.391602 0.61847,-0.63476 1.09862,-1.424147 1.44043,-2.368164 0.35806,-0.960278 0.53709,-2.083324 0.53711,-3.369141 l 0,-2.416992 -3.49121,0.170899 c -1.46486,0.06512 -2.6937,0.227877 -3.68652,0.488281 -0.99285,0.260429 -1.79038,0.626639 -2.39258,1.098633 -0.58595,0.45574 -1.00912,1.017263 -1.26953,1.68457 -0.26043,0.651051 -0.39064,1.39161 -0.39063,2.22168 -1e-5,1.497401 0.39062,2.596033 1.17188,3.295898 0.79751,0.699873 1.83918,1.049808 3.125,1.049805"
               style="font-size:50px;fill:#999999;fill-opacity:1;stroke:#999999;stroke-width:3.06460857;stroke-miterlimit:4;stroke-opacity:1;stroke-dasharray:none;-inkscape-font-specification:Sans"
               id="path3916-8-4-9-5-6" />
            <path
               inkscape:connector-curvature="0"
               d="m 243.50867,66.374451 0,-17.260743 c -4e-5,-2.115866 -0.40694,-3.702778 -1.22071,-4.760742 -0.81383,-1.057919 -2.07522,-1.58689 -3.78418,-1.586914 -1.18818,2.4e-5 -2.19729,0.195336 -3.02734,0.585938 -0.83011,0.374371 -1.5137,0.935894 -2.05078,1.68457 -0.52086,0.732443 -0.90335,1.652038 -1.14746,2.758789 -0.24417,1.090512 -0.36624,2.351904 -0.36621,3.78418 l 0,14.794922 -4.46778,0 0,-17.260743 c -2e-5,-2.115866 -0.40692,-3.702778 -1.2207,-4.760742 -0.79754,-1.057919 -2.0508,-1.58689 -3.75976,-1.586914 -1.25327,2.4e-5 -2.30308,0.211612 -3.14942,0.634766 -0.84636,0.4232 -1.52996,1.049826 -2.05078,1.879883 -0.50457,0.830098 -0.87078,1.84735 -1.09863,3.051757 -0.2116,1.204444 -0.31739,2.587907 -0.31739,4.150391 l 0,13.891602 -4.44336,0 0,-26.806641 3.61329,0 0.63476,3.613281 0.24414,0 c 0.39062,-0.699846 0.85448,-1.302059 1.3916,-1.80664 0.5371,-0.520808 1.12304,-0.952123 1.75782,-1.293946 0.65103,-0.34177 1.33462,-0.594048 2.05078,-0.756836 0.7324,-0.162733 1.47296,-0.244113 2.22168,-0.24414 1.9531,2.7e-5 3.57257,0.3581 4.8584,1.074219 1.30206,0.716171 2.26234,1.839217 2.88086,3.36914 l 0.19531,0 c 0.42315,-0.76495 0.92771,-1.424129 1.51367,-1.977539 0.60219,-0.55336 1.25323,-1.009089 1.95312,-1.367187 0.71612,-0.374323 1.46482,-0.651015 2.2461,-0.830079 0.78122,-0.179009 1.57874,-0.268527 2.39258,-0.268554 2.84827,2.7e-5 4.98857,0.781276 6.42089,2.34375 1.44853,1.546247 2.17282,4.028341 2.17286,7.446289 l 0,17.504883 -4.44336,0"
               style="font-size:50px;fill:#999999;fill-opacity:1;stroke:#999999;stroke-width:3.06460857;stroke-miterlimit:4;stroke-opacity:1;stroke-dasharray:none;-inkscape-font-specification:Sans"
               id="path3918-2-3-8-3-0" />
            <path
               inkscape:connector-curvature="0"
               d="m 266.79968,66.862732 c -1.79038,-10e-7 -3.42612,-0.301107 -4.90722,-0.90332 -1.48113,-0.602213 -2.7588,-1.481118 -3.83301,-2.636719 -1.05795,-1.155595 -1.87989,-2.587885 -2.46582,-4.296875 -0.58594,-1.708975 -0.87891,-3.662098 -0.87891,-5.859375 0,-2.213526 0.26855,-4.191063 0.80567,-5.932617 0.5371,-1.741516 1.29394,-3.214496 2.2705,-4.418946 0.97656,-1.220678 2.1403,-2.148411 3.49121,-2.783203 1.36718,-0.634738 2.87271,-0.952121 4.51661,-0.952148 1.61131,2.7e-5 3.05987,0.292996 4.3457,0.878906 1.28579,0.569687 2.37628,1.383489 3.27148,2.441406 0.89516,1.04169 1.57876,2.303082 2.05078,3.78418 0.48826,1.464862 0.7324,3.092465 0.73243,4.882812 l 0,2.75879 -16.89453,0 c 0.0814,3.141285 0.74055,5.452481 1.97753,6.933593 1.25325,1.481124 3.10872,2.221683 5.56641,2.22168 0.83006,3e-6 1.59504,-0.04069 2.29492,-0.12207 0.71613,-0.08138 1.39972,-0.195309 2.05078,-0.341797 0.6673,-0.162757 1.3102,-0.358069 1.92871,-0.585938 0.61847,-0.244136 1.2451,-0.51269 1.87989,-0.805664 l 0,3.955078 c -0.65107,0.309246 -1.29397,0.577801 -1.92871,0.805664 -0.61851,0.227865 -1.26142,0.41504 -1.92871,0.561524 -0.65106,0.146484 -1.33466,0.252278 -2.05079,0.317383 -0.69988,0.0651 -1.46485,0.09766 -2.29492,0.09766 m -1.09863,-24.09668 c -1.85548,2.4e-5 -3.32846,0.634789 -4.41895,1.904297 -1.07422,1.269552 -1.70085,3.116881 -1.87988,5.541992 l 12.01172,0 c -2e-5,-1.106753 -0.11395,-2.115867 -0.3418,-3.027343 -0.2116,-0.927715 -0.5534,-1.717102 -1.02539,-2.368165 -0.45574,-0.651019 -1.04168,-1.155576 -1.75781,-1.513671 -0.71616,-0.35805 -1.57879,-0.537086 -2.58789,-0.53711"
               style="font-size:50px;fill:#999999;fill-opacity:1;stroke:#999999;stroke-width:3.06460857;stroke-miterlimit:4;stroke-opacity:1;stroke-dasharray:none;-inkscape-font-specification:Sans"
               id="path3920-2-24-6-2-2" />
          </g>
        </g>
      </g>
      <path
         inkscape:export-ydpi="223.68402"
         inkscape:export-xdpi="223.68402"
         inkscape:export-filename="/home/moteado/ManifestanteXXI/pegatinas/hackeame_demo.png"
         sodipodi:nodetypes="ccccccc"
         inkscape:connector-curvature="0"
         d="M 332.45174,66.997588 312.64897,48.396486 c -6.10359,-6.087657 -2.83756,-17.891207 5.43468,-20.130397 7.21325,-2.400012 14.47994,4.609988 14.35592,11.745812 -0.11676,-7.394633 7.75165,-14.509772 15.09589,-11.557674 8.15735,2.931911 10.90771,15.441065 3.68593,20.842429 z"
         style="font-size:58.25854492px;font-style:normal;font-weight:normal;line-height:125%;letter-spacing:0px;word-spacing:0px;fill:#f8c1af;fill-opacity:1;stroke:#181818;stroke-width:5.06589031;stroke-miterlimit:4;stroke-opacity:1;stroke-dasharray:none;font-family:Sans" />
      <g
         style="font-size:44.71231079px;font-style:normal;font-weight:normal;line-height:125%;letter-spacing:0px;word-spacing:0px;fill:#f8c1af;stroke:#181818;stroke-width:5.06589031;stroke-miterlimit:4;stroke-opacity:1;stroke-dasharray:none;font-family:Sans"
         id="text3004-5-9-4-0-4-27">
        <path
           d="m 42.076866,28.911865 4.931641,0 0,14.941406 17.919922,0 0,-14.941406 4.93164,0 0,36.450196 -4.93164,0 0,-17.358399 -17.919922,0 0,17.358399 -4.931641,0 0,-36.450196"
           style="font-size:50px;fill:#f8c1af;stroke:#181818;stroke-width:5.06589031;stroke-miterlimit:4;stroke-dasharray:none;-inkscape-font-specification:Sans"
           id="path3898"
           inkscape:connector-curvature="0" />
        <path
           d="m 91.905968,51.616943 c -3.629571,1.4e-5 -6.144217,0.415053 -7.543946,1.245118 -1.399747,0.830089 -2.099616,2.246104 -2.099609,4.248046 -7e-6,1.595059 0.520825,2.864589 1.5625,3.808594 1.057933,0.927738 2.490223,1.391605 4.296875,1.391602 2.490219,3e-6 4.484032,-0.878903 5.981445,-2.636719 1.513651,-1.774081 2.270487,-4.125967 2.270508,-7.055664 l 0,-1.000977 -4.467773,0 m 8.959962,-1.855468 0,15.600586 -4.492189,0 0,-4.150391 c -1.025411,1.660159 -2.303079,2.888999 -3.833008,3.686523 -1.529964,0.78125 -3.401707,1.171875 -5.615234,1.171875 -2.799489,0 -5.029304,-0.78125 -6.689453,-2.34375 -1.643884,-1.578772 -2.465823,-3.686518 -2.46582,-6.323242 -3e-6,-3.076161 1.025386,-5.395494 3.076171,-6.958008 2.06705,-1.562483 5.143218,-2.343732 9.228516,-2.34375 l 6.298828,0 0,-0.439453 c -2.1e-5,-2.067037 -0.683615,-3.662088 -2.050781,-4.785156 -1.35093,-1.139299 -3.255225,-1.70896 -5.712891,-1.708984 -1.562512,2.4e-5 -3.08432,0.187198 -4.565429,0.561523 -1.481128,0.374372 -2.90528,0.935895 -4.272461,1.68457 l 0,-4.15039 c 1.643873,-0.634739 3.238924,-1.106744 4.785156,-1.416016 1.546213,-0.325493 3.051745,-0.488253 4.516601,-0.488281 3.95506,2.8e-5 6.909159,1.025417 8.862305,3.076172 1.9531,2.050804 2.929659,5.159525 2.929689,9.326172"
           style="font-size:50px;fill:#f8c1af;stroke:#181818;stroke-width:5.06589031;stroke-miterlimit:4;stroke-dasharray:none;-inkscape-font-specification:Sans"
           id="path3900"
           inkscape:connector-curvature="0" />
        <path
           d="m 129.82101,39.068115 0,4.199219 c -1.26956,-0.699847 -2.54723,-1.22068 -3.83301,-1.5625 -1.26955,-0.358049 -2.55536,-0.537085 -3.85742,-0.537109 -2.91343,2.4e-5 -5.1758,0.927757 -6.78711,2.783203 -1.61134,1.839212 -2.417,4.4271 -2.41699,7.763672 -1e-5,3.336598 0.80565,5.932625 2.41699,7.788086 1.61131,1.839196 3.87368,2.758792 6.78711,2.758789 1.30206,3e-6 2.58787,-0.170896 3.85742,-0.512696 1.28578,-0.358069 2.56345,-0.887039 3.83301,-1.586914 l 0,4.150391 c -1.25328,0.585938 -2.55536,1.025391 -3.90625,1.318359 -1.33466,0.292968 -2.75881,0.439453 -4.27246,0.439453 -4.11785,0 -7.38934,-1.293944 -9.81446,-3.881836 -2.42513,-2.587884 -3.6377,-6.079092 -3.63769,-10.473632 -1e-5,-4.459618 1.2207,-7.967101 3.66211,-10.522461 2.45767,-2.555312 5.81867,-3.83298 10.083,-3.833008 1.38345,2.8e-5 2.73436,0.146512 4.05274,0.439453 1.31834,0.27672 2.596,0.699897 3.83301,1.269531"
           style="font-size:50px;fill:#f8c1af;stroke:#181818;stroke-width:5.06589031;stroke-miterlimit:4;stroke-dasharray:none;-inkscape-font-specification:Sans"
           id="path3902"
           inkscape:connector-curvature="0" />
        <path
           d="m 137.51144,27.373779 4.5166,0 0,22.436524 13.40332,-11.791992 5.7373,0 -14.50195,12.792968 15.1123,14.550782 -5.85937,0 -13.8916,-13.354493 0,13.354493 -4.5166,0 0,-37.988282"
           style="font-size:50px;fill:#f8c1af;stroke:#181818;stroke-width:5.06589031;stroke-miterlimit:4;stroke-dasharray:none;-inkscape-font-specification:Sans"
           id="path3904"
           inkscape:connector-curvature="0" />
        <path
           d="m 188.3171,50.567139 0,2.197265 -20.6543,0 c 0.19531,3.092458 1.12304,5.452481 2.78321,7.080078 1.67642,1.611332 4.00389,2.416996 6.98242,2.416993 1.72524,3e-6 3.39353,-0.211586 5.00488,-0.634766 1.62758,-0.423173 3.23891,-1.057938 4.83399,-1.904297 l 0,4.248047 c -1.61136,0.683594 -3.26337,1.204427 -4.95606,1.5625 -1.69273,0.358072 -3.40985,0.537109 -5.15137,0.537109 -4.36199,0 -7.82064,-1.26953 -10.37597,-3.808593 -2.53907,-2.539057 -3.8086,-5.973299 -3.8086,-10.302735 0,-4.475893 1.20443,-8.024067 3.61328,-10.644531 2.42513,-2.636692 5.68847,-3.95505 9.79004,-3.955078 3.67837,2.8e-5 6.58364,1.188178 8.71582,3.564453 2.14841,2.360048 3.22263,5.574563 3.22266,9.643555 m -4.49219,-1.31836 c -0.0326,-2.457663 -0.7243,-4.418924 -2.07519,-5.883789 -1.33466,-1.46482 -3.10874,-2.197241 -5.32227,-2.197265 -2.50652,2.4e-5 -4.51661,0.708031 -6.03027,2.124023 -1.49741,1.416036 -2.36004,3.409849 -2.58789,5.981445 l 16.01562,-0.02441"
           style="font-size:50px;fill:#f8c1af;stroke:#181818;stroke-width:5.06589031;stroke-miterlimit:4;stroke-dasharray:none;-inkscape-font-specification:Sans"
           id="path3906"
           inkscape:connector-curvature="0" />
        <path
           d="m 208.11691,51.616943 c -3.62958,1.4e-5 -6.14422,0.415053 -7.54395,1.245118 -1.39975,0.830089 -2.09962,2.246104 -2.09961,4.248046 -1e-5,1.595059 0.52083,2.864589 1.5625,3.808594 1.05793,0.927738 2.49022,1.391605 4.29688,1.391602 2.49021,3e-6 4.48403,-0.878903 5.98144,-2.636719 1.51365,-1.774081 2.27049,-4.125967 2.27051,-7.055664 l 0,-1.000977 -4.46777,0 m 8.95996,-1.855468 0,15.600586 -4.49219,0 0,-4.150391 c -1.02541,1.660159 -2.30308,2.888999 -3.83301,3.686523 -1.52996,0.78125 -3.40171,1.171875 -5.61523,1.171875 -2.79949,0 -5.02931,-0.78125 -6.68946,-2.34375 -1.64388,-1.578772 -2.46582,-3.686518 -2.46582,-6.323242 0,-3.076161 1.02539,-5.395494 3.07617,-6.958008 2.06705,-1.562483 5.14322,-2.343732 9.22852,-2.34375 l 6.29883,0 0,-0.439453 c -2e-5,-2.067037 -0.68362,-3.662088 -2.05078,-4.785156 -1.35093,-1.139299 -3.25523,-1.70896 -5.71289,-1.708984 -1.56252,2.4e-5 -3.08432,0.187198 -4.56543,0.561523 -1.48113,0.374372 -2.90528,0.935895 -4.27246,1.68457 l 0,-4.15039 c 1.64387,-0.634739 3.23892,-1.106744 4.78515,-1.416016 1.54622,-0.325493 3.05175,-0.488253 4.5166,-0.488281 3.95506,2.8e-5 6.90916,1.025417 8.86231,3.076172 1.9531,2.050804 2.92966,5.159525 2.92969,9.326172"
           style="font-size:50px;fill:#f8c1af;stroke:#181818;stroke-width:5.06589031;stroke-miterlimit:4;stroke-dasharray:none;-inkscape-font-specification:Sans"
           id="path3908"
           inkscape:connector-curvature="0" />
        <path
           d="m 247.64327,43.267334 c 1.12302,-2.018205 2.46579,-3.507461 4.02832,-4.467773 1.56247,-0.960259 3.40166,-1.440402 5.51758,-1.44043 2.84827,2.8e-5 5.04553,1.001003 6.5918,3.00293 1.54618,1.9857 2.31929,4.817728 2.31933,8.496093 l 0,16.503907 -4.5166,0 0,-16.357422 c -4e-5,-2.620424 -0.4639,-4.565409 -1.3916,-5.834961 -0.92777,-1.269508 -2.34379,-1.904273 -4.24805,-1.904297 -2.3275,2.4e-5 -4.16669,0.773135 -5.51757,2.319336 -1.35094,1.546244 -2.0264,3.653989 -2.02637,6.323242 l 0,15.454102 -4.5166,0 0,-16.357422 c -3e-5,-2.6367 -0.46389,-4.581685 -1.3916,-5.834961 -0.92776,-1.269508 -2.36005,-1.904273 -4.29688,-1.904297 -2.29494,2.4e-5 -4.11785,0.781273 -5.46875,2.34375 -1.35092,1.546244 -2.02638,3.645851 -2.02637,6.298828 l 0,15.454102 -4.5166,0 0,-27.34375 4.5166,0 0,4.248046 c 1.02538,-1.676407 2.25422,-2.913385 3.68653,-3.710937 1.43227,-0.797499 3.13312,-1.196261 5.10254,-1.196289 1.98565,2.8e-5 3.67022,0.504585 5.05371,1.513672 1.39971,1.00914 2.43324,2.473982 3.10058,4.394531"
           style="font-size:50px;fill:#f8c1af;stroke:#181818;stroke-width:5.06589031;stroke-miterlimit:4;stroke-dasharray:none;-inkscape-font-specification:Sans"
           id="path3910"
           inkscape:connector-curvature="0" />
        <path
           d="m 298.47335,50.567139 0,2.197265 -20.6543,0 c 0.19531,3.092458 1.12304,5.452481 2.78321,7.080078 1.67642,1.611332 4.00389,2.416996 6.98242,2.416993 1.72524,3e-6 3.39353,-0.211586 5.00488,-0.634766 1.62758,-0.423173 3.23891,-1.057938 4.83399,-1.904297 l 0,4.248047 c -1.61136,0.683594 -3.26337,1.204427 -4.95606,1.5625 -1.69273,0.358072 -3.40985,0.537109 -5.15137,0.537109 -4.36199,0 -7.82064,-1.26953 -10.37597,-3.808593 -2.53907,-2.539057 -3.8086,-5.973299 -3.8086,-10.302735 0,-4.475893 1.20443,-8.024067 3.61328,-10.644531 2.42513,-2.636692 5.68847,-3.95505 9.79004,-3.955078 3.67837,2.8e-5 6.58364,1.188178 8.71582,3.564453 2.14841,2.360048 3.22263,5.574563 3.22266,9.643555 m -4.49219,-1.31836 c -0.0326,-2.457663 -0.7243,-4.418924 -2.07519,-5.883789 -1.33466,-1.46482 -3.10874,-2.197241 -5.32227,-2.197265 -2.50652,2.4e-5 -4.51661,0.708031 -6.03027,2.124023 -1.49741,1.416036 -2.36004,3.409849 -2.58789,5.981445 l 16.01562,-0.02441"
           style="font-size:50px;fill:#f8c1af;stroke:#181818;stroke-width:5.06589031;stroke-miterlimit:4;stroke-dasharray:none;-inkscape-font-specification:Sans"
           id="path3912"
           inkscape:connector-curvature="0" />
      </g>
      <path
         inkscape:export-ydpi="223.68402"
         inkscape:export-xdpi="223.68402"
         inkscape:export-filename="/home/moteado/ManifestanteXXI/pegatinas/hackeame_demo.png"
         sodipodi:nodetypes="ccccccc"
         inkscape:connector-curvature="0"
         d="M 332.45174,66.997592 312.64897,48.39649 c -6.10359,-6.087657 -2.83756,-17.891208 5.43468,-20.130398 7.21325,-2.400012 14.47994,4.609989 14.35592,11.745813 -0.11676,-7.394633 7.75165,-14.509773 15.09589,-11.557675 8.15735,2.931911 10.90771,15.441066 3.68593,20.84243 z"
         style="font-size:58.25854492px;font-style:normal;font-weight:normal;line-height:125%;letter-spacing:0px;word-spacing:0px;fill:#fefefe;fill-opacity:1;stroke:#fefefe;stroke-width:0.51709872;stroke-miterlimit:4;stroke-opacity:1;stroke-dasharray:none;font-family:Sans" />
      <g
         style="font-size:44.71231079px;font-style:normal;font-weight:normal;line-height:125%;letter-spacing:0px;word-spacing:0px;stroke:#fefefe;stroke-width:0.51709872;stroke-miterlimit:4;stroke-opacity:1;font-family:Sans"
         id="text3004-5-0-4-0-4-58-03">
        <path
           d="m 42.076866,28.911865 4.931641,0 0,14.941406 17.919922,0 0,-14.941406 4.93164,0 0,36.450196 -4.93164,0 0,-17.358399 -17.919922,0 0,17.358399 -4.931641,0 0,-36.450196"
           style="font-size:50px;fill:#fefefe;stroke:#fefefe;stroke-width:0.51709872;-inkscape-font-specification:Sans"
           id="path3915"
           inkscape:connector-curvature="0" />
        <path
           d="m 91.905968,51.616943 c -3.629571,1.4e-5 -6.144217,0.415053 -7.543946,1.245118 -1.399747,0.830089 -2.099616,2.246104 -2.099609,4.248046 -7e-6,1.595059 0.520825,2.864589 1.5625,3.808594 1.057933,0.927738 2.490223,1.391605 4.296875,1.391602 2.490219,3e-6 4.484032,-0.878903 5.981445,-2.636719 1.513651,-1.774081 2.270487,-4.125967 2.270508,-7.055664 l 0,-1.000977 -4.467773,0 m 8.959962,-1.855468 0,15.600586 -4.492189,0 0,-4.150391 c -1.025411,1.660159 -2.303079,2.888999 -3.833008,3.686523 -1.529964,0.78125 -3.401707,1.171875 -5.615234,1.171875 -2.799489,0 -5.029304,-0.78125 -6.689453,-2.34375 -1.643884,-1.578772 -2.465823,-3.686518 -2.46582,-6.323242 -3e-6,-3.076161 1.025386,-5.395494 3.076171,-6.958008 2.06705,-1.562483 5.143218,-2.343732 9.228516,-2.34375 l 6.298828,0 0,-0.439453 c -2.1e-5,-2.067037 -0.683615,-3.662088 -2.050781,-4.785156 -1.35093,-1.139299 -3.255225,-1.70896 -5.712891,-1.708984 -1.562512,2.4e-5 -3.08432,0.187198 -4.565429,0.561523 -1.481128,0.374372 -2.90528,0.935895 -4.272461,1.68457 l 0,-4.15039 c 1.643873,-0.634739 3.238924,-1.106744 4.785156,-1.416016 1.546213,-0.325493 3.051745,-0.488253 4.516601,-0.488281 3.95506,2.8e-5 6.909159,1.025417 8.862305,3.076172 1.9531,2.050804 2.929659,5.159525 2.929689,9.326172"
           style="font-size:50px;fill:#fefefe;stroke:#fefefe;stroke-width:0.51709872;-inkscape-font-specification:Sans"
           id="path3917"
           inkscape:connector-curvature="0" />
        <path
           d="m 129.82101,39.068115 0,4.199219 c -1.26956,-0.699847 -2.54723,-1.22068 -3.83301,-1.5625 -1.26955,-0.358049 -2.55536,-0.537085 -3.85742,-0.537109 -2.91343,2.4e-5 -5.1758,0.927757 -6.78711,2.783203 -1.61134,1.839212 -2.417,4.4271 -2.41699,7.763672 -1e-5,3.336598 0.80565,5.932625 2.41699,7.788086 1.61131,1.839196 3.87368,2.758792 6.78711,2.758789 1.30206,3e-6 2.58787,-0.170896 3.85742,-0.512696 1.28578,-0.358069 2.56345,-0.887039 3.83301,-1.586914 l 0,4.150391 c -1.25328,0.585938 -2.55536,1.025391 -3.90625,1.318359 -1.33466,0.292968 -2.75881,0.439453 -4.27246,0.439453 -4.11785,0 -7.38934,-1.293944 -9.81446,-3.881836 -2.42513,-2.587884 -3.6377,-6.079092 -3.63769,-10.473632 -1e-5,-4.459618 1.2207,-7.967101 3.66211,-10.522461 2.45767,-2.555312 5.81867,-3.83298 10.083,-3.833008 1.38345,2.8e-5 2.73436,0.146512 4.05274,0.439453 1.31834,0.27672 2.596,0.699897 3.83301,1.269531"
           style="font-size:50px;fill:#fefefe;stroke:#fefefe;stroke-width:0.51709872;-inkscape-font-specification:Sans"
           id="path3919"
           inkscape:connector-curvature="0" />
        <path
           d="m 137.51144,27.373779 4.5166,0 0,22.436524 13.40332,-11.791992 5.7373,0 -14.50195,12.792968 15.1123,14.550782 -5.85937,0 -13.8916,-13.354493 0,13.354493 -4.5166,0 0,-37.988282"
           style="font-size:50px;fill:#fefefe;stroke:#fefefe;stroke-width:0.51709872;-inkscape-font-specification:Sans"
           id="path3921"
           inkscape:connector-curvature="0" />
        <path
           d="m 188.3171,50.567139 0,2.197265 -20.6543,0 c 0.19531,3.092458 1.12304,5.452481 2.78321,7.080078 1.67642,1.611332 4.00389,2.416996 6.98242,2.416993 1.72524,3e-6 3.39353,-0.211586 5.00488,-0.634766 1.62758,-0.423173 3.23891,-1.057938 4.83399,-1.904297 l 0,4.248047 c -1.61136,0.683594 -3.26337,1.204427 -4.95606,1.5625 -1.69273,0.358072 -3.40985,0.537109 -5.15137,0.537109 -4.36199,0 -7.82064,-1.26953 -10.37597,-3.808593 -2.53907,-2.539057 -3.8086,-5.973299 -3.8086,-10.302735 0,-4.475893 1.20443,-8.024067 3.61328,-10.644531 2.42513,-2.636692 5.68847,-3.95505 9.79004,-3.955078 3.67837,2.8e-5 6.58364,1.188178 8.71582,3.564453 2.14841,2.360048 3.22263,5.574563 3.22266,9.643555 m -4.49219,-1.31836 c -0.0326,-2.457663 -0.7243,-4.418924 -2.07519,-5.883789 -1.33466,-1.46482 -3.10874,-2.197241 -5.32227,-2.197265 -2.50652,2.4e-5 -4.51661,0.708031 -6.03027,2.124023 -1.49741,1.416036 -2.36004,3.409849 -2.58789,5.981445 l 16.01562,-0.02441"
           style="font-size:50px;fill:#fefefe;stroke:#fefefe;stroke-width:0.51709872;-inkscape-font-specification:Sans"
           id="path3923"
           inkscape:connector-curvature="0" />
        <path
           d="m 208.11691,51.616943 c -3.62958,1.4e-5 -6.14422,0.415053 -7.54395,1.245118 -1.39975,0.830089 -2.09962,2.246104 -2.09961,4.248046 -1e-5,1.595059 0.52083,2.864589 1.5625,3.808594 1.05793,0.927738 2.49022,1.391605 4.29688,1.391602 2.49021,3e-6 4.48403,-0.878903 5.98144,-2.636719 1.51365,-1.774081 2.27049,-4.125967 2.27051,-7.055664 l 0,-1.000977 -4.46777,0 m 8.95996,-1.855468 0,15.600586 -4.49219,0 0,-4.150391 c -1.02541,1.660159 -2.30308,2.888999 -3.83301,3.686523 -1.52996,0.78125 -3.40171,1.171875 -5.61523,1.171875 -2.79949,0 -5.02931,-0.78125 -6.68946,-2.34375 -1.64388,-1.578772 -2.46582,-3.686518 -2.46582,-6.323242 0,-3.076161 1.02539,-5.395494 3.07617,-6.958008 2.06705,-1.562483 5.14322,-2.343732 9.22852,-2.34375 l 6.29883,0 0,-0.439453 c -2e-5,-2.067037 -0.68362,-3.662088 -2.05078,-4.785156 -1.35093,-1.139299 -3.25523,-1.70896 -5.71289,-1.708984 -1.56252,2.4e-5 -3.08432,0.187198 -4.56543,0.561523 -1.48113,0.374372 -2.90528,0.935895 -4.27246,1.68457 l 0,-4.15039 c 1.64387,-0.634739 3.23892,-1.106744 4.78515,-1.416016 1.54622,-0.325493 3.05175,-0.488253 4.5166,-0.488281 3.95506,2.8e-5 6.90916,1.025417 8.86231,3.076172 1.9531,2.050804 2.92966,5.159525 2.92969,9.326172"
           style="font-size:50px;fill:#fefefe;stroke:#fefefe;stroke-width:0.51709872;-inkscape-font-specification:Sans"
           id="path3925"
           inkscape:connector-curvature="0" />
        <path
           d="m 247.64327,43.267334 c 1.12302,-2.018205 2.46579,-3.507461 4.02832,-4.467773 1.56247,-0.960259 3.40166,-1.440402 5.51758,-1.44043 2.84827,2.8e-5 5.04553,1.001003 6.5918,3.00293 1.54618,1.9857 2.31929,4.817728 2.31933,8.496093 l 0,16.503907 -4.5166,0 0,-16.357422 c -4e-5,-2.620424 -0.4639,-4.565409 -1.3916,-5.834961 -0.92777,-1.269508 -2.34379,-1.904273 -4.24805,-1.904297 -2.3275,2.4e-5 -4.16669,0.773135 -5.51757,2.319336 -1.35094,1.546244 -2.0264,3.653989 -2.02637,6.323242 l 0,15.454102 -4.5166,0 0,-16.357422 c -3e-5,-2.6367 -0.46389,-4.581685 -1.3916,-5.834961 -0.92776,-1.269508 -2.36005,-1.904273 -4.29688,-1.904297 -2.29494,2.4e-5 -4.11785,0.781273 -5.46875,2.34375 -1.35092,1.546244 -2.02638,3.645851 -2.02637,6.298828 l 0,15.454102 -4.5166,0 0,-27.34375 4.5166,0 0,4.248046 c 1.02538,-1.676407 2.25422,-2.913385 3.68653,-3.710937 1.43227,-0.797499 3.13312,-1.196261 5.10254,-1.196289 1.98565,2.8e-5 3.67022,0.504585 5.05371,1.513672 1.39971,1.00914 2.43324,2.473982 3.10058,4.394531"
           style="font-size:50px;fill:#fefefe;stroke:#fefefe;stroke-width:0.51709872;-inkscape-font-specification:Sans"
           id="path3927"
           inkscape:connector-curvature="0" />
        <path
           d="m 298.47335,50.567139 0,2.197265 -20.6543,0 c 0.19531,3.092458 1.12304,5.452481 2.78321,7.080078 1.67642,1.611332 4.00389,2.416996 6.98242,2.416993 1.72524,3e-6 3.39353,-0.211586 5.00488,-0.634766 1.62758,-0.423173 3.23891,-1.057938 4.83399,-1.904297 l 0,4.248047 c -1.61136,0.683594 -3.26337,1.204427 -4.95606,1.5625 -1.69273,0.358072 -3.40985,0.537109 -5.15137,0.537109 -4.36199,0 -7.82064,-1.26953 -10.37597,-3.808593 -2.53907,-2.539057 -3.8086,-5.973299 -3.8086,-10.302735 0,-4.475893 1.20443,-8.024067 3.61328,-10.644531 2.42513,-2.636692 5.68847,-3.95505 9.79004,-3.955078 3.67837,2.8e-5 6.58364,1.188178 8.71582,3.564453 2.14841,2.360048 3.22263,5.574563 3.22266,9.643555 m -4.49219,-1.31836 c -0.0326,-2.457663 -0.7243,-4.418924 -2.07519,-5.883789 -1.33466,-1.46482 -3.10874,-2.197241 -5.32227,-2.197265 -2.50652,2.4e-5 -4.51661,0.708031 -6.03027,2.124023 -1.49741,1.416036 -2.36004,3.409849 -2.58789,5.981445 l 16.01562,-0.02441"
           style="font-size:50px;fill:#fefefe;stroke:#fefefe;stroke-width:0.51709872;-inkscape-font-specification:Sans"
           id="path3929"
           inkscape:connector-curvature="0" />
      </g>
    </g>
  </g>
</svg>
