<?xml version="1.0" encoding="UTF-8" standalone="no"?>
<!-- Created with Inkscape (http://www.inkscape.org/) -->

<svg
   xmlns:dc="http://purl.org/dc/elements/1.1/"
   xmlns:cc="http://creativecommons.org/ns#"
   xmlns:rdf="http://www.w3.org/1999/02/22-rdf-syntax-ns#"
   xmlns:svg="http://www.w3.org/2000/svg"
   xmlns="http://www.w3.org/2000/svg"
   xmlns:sodipodi="http://sodipodi.sourceforge.net/DTD/sodipodi-0.dtd"
   xmlns:inkscape="http://www.inkscape.org/namespaces/inkscape"
   width="1052.3622"
   height="744.09448"
   id="svg3830"
   version="1.1"
   inkscape:version="0.48.2 r9819"
   sodipodi:docname="Documento nuevo 2">
  <defs
     id="defs3832" />
  <sodipodi:namedview
     id="base"
     pagecolor="#ffffff"
     bordercolor="#666666"
     borderopacity="1.0"
     inkscape:pageopacity="0.0"
     inkscape:pageshadow="2"
     inkscape:zoom="0.42468279"
     inkscape:cx="574.56056"
     inkscape:cy="392.69129"
     inkscape:document-units="px"
     inkscape:current-layer="layer3"
     showgrid="false"
     inkscape:window-width="1024"
     inkscape:window-height="552"
     inkscape:window-x="0"
     inkscape:window-y="26"
     inkscape:window-maximized="1" />
  <metadata
     id="metadata3835">
    <rdf:RDF>
      <cc:Work
         rdf:about="">
        <dc:format>image/svg+xml</dc:format>
        <dc:type
           rdf:resource="http://purl.org/dc/dcmitype/StillImage" />
        <dc:title></dc:title>
      </cc:Work>
    </rdf:RDF>
  </metadata>
  <g
     inkscape:groupmode="layer"
     id="layer3"
     inkscape:label="bg"
     style="display:inline">
    <path
       style="font-size:58.25854491999999851px;font-style:normal;font-variant:normal;font-weight:normal;font-stretch:normal;text-indent:0;text-align:start;text-decoration:none;line-height:125%;letter-spacing:0px;word-spacing:0px;text-transform:none;direction:ltr;block-progression:tb;writing-mode:lr-tb;text-anchor:start;baseline-shift:baseline;color:#000000;fill:#ffffff;fill-opacity:1;fill-rule:nonzero;stroke:#000000;stroke-width:3;stroke-miterlimit:4;stroke-dasharray:none;marker:none;visibility:visible;display:inline;overflow:visible;enable-background:accumulate;font-family:Sans;-inkscape-font-specification:Sans"
       d="M 370.28125 267.9375 L 365.125 268.0625 L 365.78125 289.875 L 370.28125 289.875 L 373.34375 289.875 L 373.34375 292.9375 L 373.34375 354.6875 L 409.15625 323.15625 L 410.03125 322.375 L 411.1875 322.375 L 417.4375 322.375 L 416.3125 300.40625 L 411.1875 300.40625 L 401.78125 300.40625 L 395.28125 306.125 L 395.28125 292.9375 L 395.28125 267.9375 L 370.28125 267.9375 z M 358.125 268.25 L 331.5 268.9375 L 331.5 301.65625 C 329.91577 301.21303 328.35898 300.68762 326.75 300.34375 C 326.6564 300.32295 326.56239 300.30165 326.46875 300.28125 C 320.72635 299.02697 314.85983 298.40637 308.96875 298.40625 C 298.91758 298.40632 288.76687 300.3922 279.59375 304.40625 L 293.5625 322.46875 C 298.27164 321.06638 303.41336 320.34379 308.96875 320.34375 C 313.39758 320.34384 317.70621 320.84336 321.9375 321.78125 L 321.9375 321.75 C 326.18385 322.64131 330.32954 324.00961 334.3125 325.84375 L 336.09375 326.65625 L 336.09375 328.625 L 336.09375 330.03125 L 353.4375 330.03125 L 353.4375 292.9375 L 353.4375 289.875 L 356.5 289.875 L 358.78125 289.875 L 358.125 268.25 z M 909 269.28125 C 904.43948 269.39337 899.81184 270.19487 895.1875 271.59375 L 895.15625 271.53125 C 894.90597 271.59905 894.68598 271.71069 894.4375 271.78125 C 894.2295 271.84755 894.02042 271.86835 893.8125 271.9375 L 893.84375 272 C 892.41312 272.42218 891.02535 272.89325 889.65625 273.40625 L 907.9375 291.28125 C 917.5907 290.44178 926.8736 294.16278 934 300.34375 C 938.98833 304.6703 942.8582 310.27648 945.40625 316.40625 C 951.34913 302.06249 965.48948 290.99745 981.09375 291.09375 C 984.7312 291.11619 988.42014 291.78086 992.0625 293.15625 L 1008.8438 276.75 C 1006.3401 275.35035 1003.7029 274.1176 1000.9062 273.0625 L 1000.9062 273.03125 C 1000.8212 272.99725 1000.7409 272.9708 1000.6562 272.9375 C 1000.4511 272.8611 1000.2695 272.76188 1000.0625 272.6875 L 1000.0312 272.75 C 980.38075 265.25493 959.74011 270.84292 945.625 281.65625 C 935.72996 274.05462 922.75413 268.9431 909 269.28125 z M 105.25 272.625 L 75.65625 273.09375 L 75.90625 294.5625 L 80.25 294.5625 L 83.3125 294.5625 L 83.3125 297.625 L 83.3125 340.1875 L 131.875 340.1875 L 131.875 297.625 L 131.875 294.5625 L 134.9375 294.5625 L 140.96875 294.5625 L 140.75 272.625 L 134.9375 272.625 L 109.9375 272.625 L 109.9375 297.625 L 109.9375 318.21875 L 105.25 318.21875 L 105.25 297.625 L 105.25 272.625 z M 148.03125 272.625 L 148.53125 294.5625 L 150 294.5625 L 153.0625 294.5625 L 153.0625 297.625 L 153.0625 326.5625 L 177.1875 329.46875 L 177.1875 329.21875 L 177.1875 327.125 L 179.15625 326.375 C 184.31392 324.3835 189.35512 322.88716 194.25 321.90625 C 194.2601 321.90425 194.27095 321.90825 194.28125 321.90625 C 198.86184 320.94385 203.34762 320.43906 207.75 320.375 L 207.84375 298.40625 C 201.87364 298.46515 195.89592 299.17417 189.96875 300.40625 L 189.96875 300.375 C 189.88505 300.3917 189.80239 300.4206 189.71875 300.4375 C 184.78831 301.43662 179.88427 302.91247 175 304.625 L 175 297.625 L 175 272.625 L 150 272.625 L 148.03125 272.625 z M 68.65625 273.1875 L 40.1875 273.625 L 40.1875 408.875 L 40.1875 433.875 L 65.1875 433.875 L 70.5625 433.875 L 70.3125 411.96875 L 65.1875 411.96875 L 62.125 411.96875 L 62.125 408.90625 L 62.125 297.625 L 62.125 294.5625 L 65.1875 294.5625 L 68.90625 294.5625 L 68.65625 273.1875 z M 882.78125 276.46875 C 867.64937 284.40209 857.17126 298.1417 852.5 313.59375 C 843.12131 305.22578 830.81821 300.19738 818.375 298.8125 L 818.375 320.375 C 817.77069 320.41035 817.17616 320.4886 816.59375 320.625 C 826.15295 321.65304 834.20127 325.5604 840.21875 332.25 C 840.22865 332.261 840.24 332.27015 840.25 332.28125 C 847.37218 340.12375 850.87491 350.77826 850.875 363.71875 L 850.875 370.4375 L 850.875 373.5 L 847.8125 373.5 L 818.375 373.5 L 818.375 396.25 C 822.03371 396.02324 825.59768 395.47245 829.0625 394.5625 L 829.0625 394.53125 C 833.78537 393.3033 838.48044 391.48102 843.15625 389 L 847.65625 386.625 L 847.65625 391.6875 L 847.65625 404.65625 L 847.65625 406.6875 L 845.78125 407.46875 C 840.67962 409.63304 835.4464 411.27394 830.09375 412.40625 C 826.23058 413.22345 822.32168 413.76643 818.375 414 L 818.375 435.9375 C 823.85329 435.68658 829.29531 434.97778 834.65625 433.84375 C 841.40295 432.41654 848.00399 430.35906 854.375 427.65625 L 869.59375 421.1875 L 869.59375 404.625 L 869.59375 395.4375 L 872.8125 395.4375 L 872.8125 379.84375 L 891.3125 397.21875 L 907.90625 382.6875 L 883 359.3125 L 882.96875 359.28125 L 882.9375 359.25 C 862.80634 339.1714 872.93016 301.28608 899.75 293.0625 L 882.78125 276.46875 z M 1014.875 280.625 L 998.8125 296.34375 C 1008.9515 302.42487 1015.6035 313.21425 1017.8125 324.65625 C 1020.4251 338.18866 1016.7964 353.01083 1004.9375 362.0625 C 1004.8475 362.1312 1004.7785 362.21325 1004.6875 362.28125 L 988.34375 377.71875 L 1004.9375 392.21875 L 1020 378.03125 L 1019.9375 377.96875 C 1037.7604 363.1295 1043.1232 339.89134 1039.375 320.46875 C 1036.4377 305.24841 1028.2378 290.43396 1014.875 280.625 z M 667.78125 298.40625 C 662.64405 298.40632 657.41691 299.07466 652.3125 300.40625 L 640.9375 300.40625 L 632.875 300.40625 L 638.03125 322.375 L 640.9375 322.375 L 644 322.375 L 644 325.4375 L 644 329.5 C 646.04427 327.44855 648.26193 325.75689 650.6875 324.40625 C 655.58062 321.68173 661.35631 320.34385 667.78125 320.34375 C 674.35082 320.34385 680.19301 322.08684 684.96875 325.5625 C 684.97595 325.5675 684.993 325.5575 685 325.5625 C 685.006 325.5664 684.994 325.58975 685 325.59375 C 688.34328 328.01275 691.03805 331.22604 693.125 335.0625 C 696.10115 330.92141 699.50499 327.59721 703.375 325.21875 C 708.66566 321.96722 714.88926 320.34385 721.8125 320.34375 C 730.29003 320.34384 737.46369 323.22674 742.65625 328.78125 L 756.125 311.375 C 746.73587 303.07451 733.76116 298.40637 721.8125 298.40625 C 712.32937 298.40638 702.56272 300.6955 693.96875 305.4375 C 685.90818 300.74545 676.6175 298.40637 667.78125 298.40625 z M 811.375 298.40625 C 793.49857 298.40637 775.24993 305.3458 763.09375 318.5625 C 762.99278 318.67234 762.91254 318.79575 762.8125 318.90625 C 762.4294 318.37202 762.12563 317.80562 761.71875 317.28125 C 761.70075 317.25805 761.67425 317.24195 761.65625 317.21875 C 761.45719 316.96219 761.23648 316.7206 761.03125 316.46875 L 746.9375 334.6875 C 750.42647 340.99672 752.06238 348.99826 752.0625 358.53125 L 752.0625 408.125 L 766.78125 433.875 L 774 433.875 L 774 424.78125 C 784.96206 431.91807 798.12522 435.60618 811.375 436 L 811.375 414.0625 C 798.52704 413.61239 787.8703 409.47605 779.9375 401.59375 C 771.57205 393.22832 767.40624 381.78034 767.40625 367.96875 C 767.40624 353.75888 771.31348 342.07121 779.25 333.4375 C 787.23019 324.76112 798.19805 320.34384 811.375 320.34375 L 811.375 298.40625 z M 473.0625 298.4375 C 468.27307 298.59257 463.50132 299.28497 458.8125 300.40625 L 428.71875 300.40625 L 423.34375 300.40625 L 424.46875 322.375 L 428.71875 322.375 L 436.8125 322.375 L 430.75 327.71875 L 388.9375 364.5625 L 432.6875 406.71875 L 438.125 411.96875 L 430.5625 411.96875 L 427.40625 411.96875 L 428.21875 433.875 L 430.5625 433.875 L 459.375 433.875 C 463.40682 434.83267 467.51309 435.4931 471.65625 435.8125 L 471.96875 413.875 C 460.5417 412.88964 450.95239 408.8124 443.6875 401.59375 C 435.32205 393.22832 431.15624 381.78034 431.15625 367.96875 C 431.15624 353.75888 435.06348 342.07121 443 333.4375 C 450.60284 325.17139 460.92808 320.80399 473.28125 320.40625 L 473.59375 298.4375 C 473.41754 298.4415 473.23869 298.4315 473.0625 298.4375 z M 560.875 298.4375 C 555.46545 298.60002 550.0571 299.29007 544.6875 300.40625 L 544.6875 300.375 C 544.6038 300.3917 544.52114 300.4206 544.4375 300.4375 C 538.24804 301.69176 532.088 303.54346 525.96875 305.90625 L 512.96875 310.90625 C 507.28282 306.58168 500.80256 303.30162 493.9375 301.21875 L 494.84375 300.40625 L 490.78125 300.40625 C 487.41875 299.56742 483.98689 298.96897 480.5625 298.65625 L 480.25 320.625 C 489.85567 321.63706 497.96043 325.53587 504 332.25 C 504.0099 332.261 504.02125 332.27015 504.03125 332.28125 C 506.92282 335.46531 509.20658 339.11337 510.90625 343.1875 L 531.90625 334.125 L 531.90625 329.21875 L 531.90625 327.125 L 533.875 326.375 C 539.03267 324.3835 544.07387 322.88716 548.96875 321.90625 C 548.97895 321.90425 548.9897 321.90825 549 321.90625 C 553.06088 321.05305 557.04864 320.55629 560.96875 320.40625 L 560.875 298.4375 z M 567.875 298.53125 L 567.96875 320.5 C 578.41293 321.24169 586.79128 324.5935 592.625 330.71875 C 599.29562 337.72306 602.43742 348.08209 602.4375 361.28125 L 602.4375 408.90625 L 602.4375 411.96875 L 599.375 411.96875 L 585.65625 411.96875 L 582.59375 411.96875 L 582.59375 408.90625 L 582.59375 404.90625 C 580.40495 407.0273 577.98828 408.80895 575.34375 410.1875 L 575.3125 410.1875 C 573.16811 411.2825 570.85372 412.14647 568.375 412.78125 L 568.46875 435.0625 C 570.33674 434.74645 572.18585 434.35169 574.03125 433.875 L 585.65625 433.875 L 599.375 433.875 L 602.15625 433.875 L 624.375 433.875 L 625.59375 433.875 L 630.75 411.96875 L 627.15625 411.96875 L 624.09375 411.96875 L 624.09375 408.90625 L 624.09375 325.4375 L 624.09375 322.375 L 627.15625 322.375 L 630.84375 322.375 L 625.6875 300.40625 L 602.15625 300.40625 L 602.15625 310.0625 C 592.25566 302.71978 580.06266 299.21269 567.875 298.53125 z M 215 298.65625 L 215 320.65625 C 224.64022 321.63319 232.42954 324.93553 237.9375 330.71875 C 244.02986 337.11588 247.12721 346.31717 247.625 357.90625 L 264.53125 358.15625 C 265.91328 348.06619 269.7069 339.58538 275.96875 333.03125 L 275.96875 333 L 276 333 C 279.12969 329.74597 282.73362 327.12449 286.75 325.125 L 273.25 307.625 C 268.45701 310.38491 264.02311 313.76076 260.15625 317.78125 L 260.125 317.8125 L 260.09375 317.84375 C 259.3065 318.66775 258.6393 319.57405 257.90625 320.4375 C 257.30472 319.62252 256.59368 318.87992 255.9375 318.09375 L 252.25 314.125 C 242.13068 304.39527 228.63304 299.73347 215 298.65625 z M 153.0625 333.59375 L 153.0625 408.90625 L 153.0625 411.96875 L 151.21875 411.96875 L 151.71875 433.875 L 175 433.875 L 175 429.4375 C 183.41303 433.88822 192.9744 436.03125 202.09375 436.03125 C 203.56842 436.03125 205.05722 435.99805 206.53125 435.90625 L 206.125 413.96875 C 204.81014 414.06638 203.47804 414.125 202.09375 414.125 C 192.98033 414.125 185.28248 411.47912 179.59375 406.125 L 179.5625 406.09375 C 173.93142 400.6857 171.09374 393.27746 171.09375 384.59375 C 171.09374 374.52911 174.6611 366.29098 181.6875 360.9375 C 187.9988 356.16679 196.70704 353.72656 207.625 353.25 L 207.6875 338.09375 C 207.5376 338.09225 207.40178 338.09375 207.25 338.09375 C 202.72646 338.09382 198.33788 338.63822 194.0625 339.71875 C 189.7976 340.79675 185.67342 342.42816 181.71875 344.59375 L 177.1875 347.0625 L 177.1875 341.90625 L 177.1875 336.5 L 153.0625 333.59375 z M 336.09375 337.03125 L 336.09375 341.4375 L 336.09375 346.59375 L 331.5625 344.125 C 327.89544 342.10352 324.20849 340.60258 320.53125 339.625 L 320.5 339.625 L 320.46875 339.625 C 316.84495 338.60298 313.24848 338.09381 309.5625 338.09375 C 301.31879 338.09381 295.47764 340.55514 291.15625 345.53125 L 291.125 345.53125 C 286.8124 350.45374 284.53123 357.55651 284.53125 367.25 C 284.53124 370.79352 284.83644 373.97451 285.4375 376.84375 L 295.65625 392.84375 C 295.66835 392.85142 295.67538 392.86736 295.6875 392.875 C 299.37224 395.19894 303.89978 396.37501 309.5625 396.375 C 313.26081 396.37501 316.88587 395.90782 320.5 394.9375 C 320.5092 394.9345 320.52225 394.9405 320.53125 394.9375 C 324.20418 393.91218 327.88922 392.36874 331.5625 390.34375 L 336.09375 387.875 L 336.09375 393.03125 L 336.09375 396.9375 L 353.4375 393.09375 L 353.4375 337.03125 L 336.09375 337.03125 z M 475.28125 338.09375 C 468.20972 338.09381 462.97805 339.9994 458.96875 343.75 C 455.65558 346.88313 453.53748 351.1514 452.53125 356.71875 L 494.5625 356.65625 C 494.0083 351.28256 492.27242 347.05604 489.28125 343.8125 C 486.75497 341.03984 483.74736 339.2909 480 338.53125 C 479.75623 338.48307 479.49753 338.44874 479.25 338.40625 C 478.00622 338.20251 476.69606 338.09376 475.28125 338.09375 z M 811.53125 338.09375 C 804.45972 338.09381 799.22805 339.9994 795.21875 343.75 C 791.90558 346.88313 789.78748 351.1514 788.78125 356.71875 L 830.78125 356.65625 C 830.22705 351.28256 828.49117 347.05604 825.5 343.8125 C 821.98568 339.95544 817.61078 338.09381 811.53125 338.09375 z M 560.25 338.125 C 556.32768 338.24388 552.52504 338.77257 548.78125 339.71875 C 544.51635 340.79675 540.39217 342.42816 536.4375 344.59375 L 531.90625 347.0625 L 531.90625 341.90625 L 531.90625 341.75 L 513.09375 349.875 C 514.12433 354.13488 514.62497 358.75868 514.625 363.71875 L 514.625 370.4375 L 514.625 373.5 L 511.5625 373.5 L 479.53125 373.5 L 479.21875 396.375 C 483.92166 396.31018 488.45639 395.71473 492.84375 394.5625 L 492.84375 394.53125 C 497.56662 393.3033 502.26169 391.48102 506.9375 389 L 511.4375 386.625 L 511.4375 391.6875 L 511.4375 393.6875 L 525.84375 386.28125 C 525.81979 385.72786 525.8125 385.15811 525.8125 384.59375 C 525.81249 374.52911 529.37985 366.29098 536.40625 360.9375 C 542.4809 356.34567 550.77687 353.91389 561.125 353.3125 L 561.03125 338.125 C 560.77085 338.12923 560.50932 338.11714 560.25 338.125 z M 663.8125 338.40625 C 657.50096 338.40631 653.00272 340.37639 649.4375 344.5 C 645.8817 348.56992 643.99997 354.13964 644 361.71875 L 644 408.90625 L 644 411.96875 L 640.9375 411.96875 L 637.9375 411.96875 L 632.8125 433.875 L 640.9375 433.875 L 656.1875 433.875 L 665.9375 433.875 L 681.1875 433.875 L 694.96875 433.875 L 710.21875 433.875 L 719.96875 433.875 L 735.21875 433.875 L 749 433.875 L 758.6875 433.875 L 746.1875 411.96875 L 735.21875 411.96875 L 732.15625 411.96875 L 732.15625 408.90625 L 732.15625 358.96875 C 732.15614 351.33112 730.74157 346.03634 728.5 342.96875 C 726.25557 339.89761 723.13418 338.40631 718 338.40625 C 711.56672 338.40631 707.0179 340.34394 703.46875 344.40625 C 699.9191 348.46908 698.03118 354.08681 698.03125 361.71875 L 698.03125 408.90625 L 698.03125 411.96875 L 694.96875 411.96875 L 681.1875 411.96875 L 678.125 411.96875 L 678.125 408.90625 L 678.125 358.96875 C 678.12493 351.27923 676.69158 345.97166 674.46875 342.96875 C 672.23588 339.91336 669.05751 338.40631 663.8125 338.40625 z M 568.0625 338.59375 L 568.125 353.15625 L 582.46875 353.15625 C 582.13476 348.49568 580.51981 345.12574 577.4375 342.59375 L 577.40625 342.59375 C 575.07518 340.62785 571.99699 339.27119 568.0625 338.59375 z M 214.65625 338.84375 L 214.625 353.15625 L 227.75 353.15625 C 227.42051 348.48955 225.82717 345.12151 222.75 342.59375 L 222.71875 342.59375 C 220.64477 340.84466 217.98765 339.58198 214.65625 338.84375 z M 83.3125 358.96875 L 83.3125 408.90625 L 83.3125 411.96875 L 80.25 411.96875 L 77.3125 411.96875 L 77.5625 433.875 L 80.25 433.875 L 105.25 433.875 L 105.25 408.875 L 105.25 380.90625 L 109.9375 380.90625 L 109.9375 408.875 L 109.9375 433.875 L 134.9375 433.875 L 144.71875 433.875 L 144.21875 411.96875 L 134.9375 411.96875 L 131.875 411.96875 L 131.875 408.90625 L 131.875 358.96875 L 83.3125 358.96875 z M 247.71875 364.90625 L 247.71875 408.90625 L 247.71875 411.96875 L 244.65625 411.96875 L 230.9375 411.96875 L 227.875 411.96875 L 227.875 408.90625 L 227.875 404.9375 C 225.7024 407.04564 223.29066 408.81422 220.65625 410.1875 L 220.625 410.1875 C 218.6756 411.18293 216.57273 411.97938 214.34375 412.59375 L 214.25 434.96875 C 215.9498 434.66803 217.63181 434.30915 219.3125 433.875 L 230.9375 433.875 L 244.65625 433.875 L 269.65625 433.875 L 269.65625 424.5625 C 272.83755 426.71916 276.22278 428.57046 279.75 430.125 L 290.59375 411.125 C 284.95395 408.99071 280.01566 405.73107 275.875 401.3125 C 267.88232 392.78343 263.93749 381.22363 263.9375 367.25 C 263.9375 366.53301 263.94842 365.82879 263.96875 365.125 L 247.71875 364.90625 z M 217.3125 370 C 206.4687 370.00004 199.12342 371.4301 195.84375 373.375 C 192.49835 375.35892 190.93748 378.31871 190.9375 383.71875 C 190.93748 387.93101 192.14634 390.79086 194.6875 393.09375 C 197.25478 395.31983 200.78079 396.50001 205.75 396.5 C 212.63731 396.50001 217.65951 394.29095 221.6875 389.5625 C 225.77082 384.77663 227.87493 378.41514 227.875 370 L 217.3125 370 z M 572 370 C 561.1562 370.00004 553.84779 371.42677 550.5625 373.375 C 547.21148 375.36225 545.62498 378.32911 545.625 383.71875 C 545.62498 387.91795 546.85772 390.78418 549.40625 393.09375 C 551.97353 395.31983 555.49954 396.50001 560.46875 396.5 C 567.35606 396.50001 572.37826 394.29095 576.40625 389.5625 C 580.48957 384.77663 582.59368 378.41514 582.59375 370 L 572 370 z M 452 373.5 C 452.95129 380.68936 455.31521 386.10942 459.15625 389.875 C 462.47359 393.06353 466.74371 395.10012 472.21875 395.9375 L 472.53125 373.5 L 452 373.5 z M 788.25 373.5 C 789.19613 380.69323 791.53786 386.11313 795.375 389.875 C 799.26466 393.61363 804.45603 395.78703 811.375 396.28125 L 811.375 373.5 L 788.25 373.5 z M 373.34375 375.3125 L 373.34375 408.90625 L 373.34375 411.96875 L 370.28125 411.96875 L 365 411.96875 L 364.75 433.875 L 370.28125 433.875 L 395.28125 433.875 L 395.28125 426.8125 L 395.375 426.90625 L 402.625 433.875 L 412.6875 433.875 L 421.21875 433.875 L 420.4375 412.46875 L 419.875 411.96875 L 412.6875 411.96875 L 411.46875 411.96875 L 410.5625 411.09375 L 373.34375 375.3125 z M 983.21875 382.53125 L 947.65625 416.09375 L 945.5625 418.0625 L 943.46875 416.09375 L 913 387.5 L 896.40625 402 L 928.4375 432.09375 L 945.59375 448.1875 L 962.6875 432.0625 L 999.8125 397.0625 L 983.21875 382.53125 z M 526.96875 393.59375 L 511.4375 401.53125 L 511.4375 404.65625 L 511.4375 406.6875 L 509.5625 407.46875 C 504.46087 409.63304 499.22765 411.27394 493.875 412.40625 C 488.97512 413.44275 484.00445 414.00117 478.96875 414.09375 L 478.65625 436.03125 C 485.30377 435.95675 491.90885 435.21818 498.40625 433.84375 C 505.15295 432.41654 511.75399 430.35906 518.125 427.65625 L 523.28125 425.46875 C 532.98684 432.70294 545.27968 436.03125 556.8125 436.03125 C 558.36076 436.03125 559.92132 435.97625 561.46875 435.875 L 561.375 413.90625 C 559.895 414.03238 558.3842 414.125 556.8125 414.125 C 547.69908 414.125 540.00123 411.47912 534.3125 406.125 L 534.28125 406.09375 C 530.71667 402.67035 528.28339 398.43632 526.96875 393.59375 z M 353.4375 400.25 L 336.09375 404.09375 L 336.09375 405.6875 L 336.09375 407.625 L 334.3125 408.4375 C 330.28291 410.32143 326.09608 411.74496 321.75 412.6875 C 317.44226 413.63309 312.88067 414.125 308.0625 414.125 C 304.38312 414.125 300.88043 413.78896 297.5625 413.125 L 286.40625 432.625 C 293.39549 434.86748 300.7495 436.03125 308.0625 436.03125 C 314.27477 436.03125 320.41831 435.43442 326.40625 434.125 C 326.42865 434.12 326.44635 434.09845 326.46875 434.09375 C 328.17316 433.7226 329.82368 433.19863 331.5 432.71875 L 331.5 433.875 L 356.5 433.875 L 356.09375 411.96875 L 353.4375 411.96875 L 353.4375 408.90625 L 353.4375 400.25 z "
       id="path4826" />
  </g>
  <g
     inkscape:label="uniones"
     inkscape:groupmode="layer"
     id="layer1"
     transform="translate(0,-308.2677)"
     style="display:none" />
  <g
     inkscape:groupmode="layer"
     id="layer4"
     inkscape:label="letras"
     style="display:inline" />
</svg>
