<?xml version="1.0" encoding="UTF-8" standalone="no"?>
<!-- Created with Inkscape (http://www.inkscape.org/) -->

<svg
   xmlns:dc="http://purl.org/dc/elements/1.1/"
   xmlns:cc="http://creativecommons.org/ns#"
   xmlns:rdf="http://www.w3.org/1999/02/22-rdf-syntax-ns#"
   xmlns:svg="http://www.w3.org/2000/svg"
   xmlns="http://www.w3.org/2000/svg"
   xmlns:xlink="http://www.w3.org/1999/xlink"
   xmlns:inkscape="http://www.inkscape.org/namespaces/inkscape"
   version="1.2"
   width="1052.3622"
   height="1488.189"
   id="svg2">
  <defs
     id="defs4" />
  <metadata
     id="metadata7">
    <rdf:RDF>
      <cc:Work
         rdf:about="">
        <dc:format>image/svg+xml</dc:format>
        <dc:type
           rdf:resource="http://purl.org/dc/dcmitype/StillImage" />
        <dc:title />
      </cc:Work>
    </rdf:RDF>
  </metadata>
  <g
     transform="translate(0,435.82679)"
     id="layer1">
    <image
       xlink:href="poster_revolucionario_de_accion.png"
       id="image3066"
       height="1282"
       width="918.23132"
       y="-248.35208"
       x="70.027382" />
  </g>
  <g
     id="layer2"
     style="display:inline">
    <text
       x="213.38223"
       y="1582.4768"
       id="text4130"
       xml:space="preserve"
       style="font-size:148.3107605px;font-style:normal;font-variant:normal;font-weight:normal;font-stretch:normal;text-align:center;line-height:125%;letter-spacing:0px;word-spacing:0px;writing-mode:lr-tb;text-anchor:middle;fill:#000000;fill-opacity:1;stroke:none;font-family:Purisa;-inkscape-font-specification:Purisa"><tspan
         x="213.38223"
         y="1582.4768"
         id="tspan4132" /></text>
    <text
       x="86.358566"
       y="157.10872"
       id="text4134"
       xml:space="preserve"
       style="font-size:148.3107605px;font-style:normal;font-variant:normal;font-weight:normal;font-stretch:normal;text-align:center;line-height:125%;letter-spacing:0px;word-spacing:0px;writing-mode:lr-tb;text-anchor:middle;fill:#000000;fill-opacity:1;stroke:none;font-family:Purisa;-inkscape-font-specification:Purisa"><tspan
         x="86.358566"
         y="157.10872"
         id="tspan4136" /></text>
    <g
       transform="matrix(1.1935555,0,0,1.1935555,-113.57793,-39.04435)"
       id="g3106">
      <path
         d="m 486.02285,260.13106 c -8.864,0 -16,7.136 -16,16 l 0,56.9375 c 0,8.864 7.136,16 16,16 l 78.28125,0 -1.125,29.5625 22.03125,-29.5625 113.28125,0 c 8.864,0 16,-7.136 16,-16 l 0,-56.9375 c 0,-8.864 -7.136,-16 -16,-16 z"
         inkscape:connector-curvature="0"
         id="rect3095-4-6-5"
         style="opacity:0.65;color:#000000;fill:#ffff00;fill-opacity:1;fill-rule:nonzero;stroke:none;stroke-width:3;marker:none;visibility:visible;display:inline;overflow:visible;enable-background:accumulate" />
      <flowRoot
         transform="translate(-251.02461,-79.538867)"
         id="flowRoot2996"
         xml:space="preserve"
         style="font-size:16px;font-style:normal;font-weight:normal;line-height:125%;letter-spacing:0px;word-spacing:0px;fill:#000000;fill-opacity:1;stroke:none;font-family:Sans"><flowRegion
           id="flowRegion2998"><rect
             width="219.39673"
             height="86.841232"
             x="733.84808"
             y="350.10251"
             id="rect3000"
             style="font-size:16px" /></flowRegion><flowPara
           id="flowPara3002"
           style="font-size:16px;text-align:center;text-anchor:middle"><flowSpan
   id="flowSpan3423"
   style="font-size:16px;font-weight:bold;text-align:center;text-anchor:middle;-inkscape-font-specification:Sans Bold">Casco y protección</flowSpan> </flowPara><flowPara
           id="flowPara3425"
           style="font-size:16px;text-align:center;text-anchor:middle">para la bici y protegerse </flowPara><flowPara
           id="flowPara3427"
           style="font-size:16px;text-align:center;text-anchor:middle">de la represión</flowPara></flowRoot>    </g>
    <a
       xlink:href="#gas-lacrimgeno"
       transform="matrix(1.095674,0,0,1.095674,-66.802393,-27.304082)"
       id="a3179">
      <g
         id="g3097">
        <path
           d="m 676.53125,440.625 c -8.864,0 -16,7.136 -16,16 l 0,39.125 -34.875,9.96875 34.875,8.5625 0,18.375 c 0,8.864 7.136,16 16,16 l 206.9375,0 c 8.864,0 16,-7.136 16,-16 l 0,-76.03125 c 0,-8.864 -7.136,-16 -16,-16 l -206.9375,0 z"
           inkscape:connector-curvature="0"
           id="rect3095-4-6-1"
           style="opacity:0.65;color:#000000;fill:#ffff00;fill-opacity:1;fill-rule:nonzero;stroke:none;stroke-width:3;marker:none;visibility:visible;display:inline;overflow:visible;enable-background:accumulate" />
        <flowRoot
           transform="translate(-60.425285,100.83762)"
           id="flowRoot2996-8"
           xml:space="preserve"
           style="font-size:16px;font-style:normal;font-weight:normal;line-height:125%;letter-spacing:0px;word-spacing:0px;fill:#000000;fill-opacity:1;stroke:none;font-family:Sans"><flowRegion
             id="flowRegion2998-7"><rect
               width="215.49365"
               height="88.120163"
               x="733.84808"
               y="350.10251"
               id="rect3000-4"
               style="font-size:16px" /></flowRegion><flowPara
             id="flowPara3002-4"
             style="font-size:16px;font-weight:bold;text-align:center;text-anchor:middle;-inkscape-font-specification:Sans Bold">Pañuelo en la cara o pasa montaña</flowPara><flowPara
             id="flowPara3364"
             style="font-size:16px;text-align:center;text-anchor:middle">contra el gas lacrimógeno y el reconocimiento facial</flowPara></flowRoot>      </g>
    </a>
    <a
       xlink:href="#gas-lacrimgeno"
       transform="matrix(1.0299355,0,0,1.0299355,-60.672744,-32.78719)"
       id="a3189">
      <g
         id="g3148">
        <path
           d="m 783.96875,745.40625 c -8.864,0 -16,7.136 -16,16 l 0,54.8125 -25.53125,23.9375 30.1875,-8.40625 c 2.89441,2.91049 6.89572,4.71875 11.34375,4.71875 l 212.71875,0 c 8.864,0 16,-7.136 16,-16 l 0,-59.0625 c 0,-8.864 -7.136,-16 -16,-16 l -212.71875,0 z"
           inkscape:connector-curvature="0"
           id="rect3095-4-6"
           style="opacity:0.65;color:#000000;fill:#ffff00;fill-opacity:1;fill-rule:nonzero;stroke:none;stroke-width:3;marker:none;visibility:visible;display:inline;overflow:visible;enable-background:accumulate" />
        <flowRoot
           transform="matrix(1.0445685,0,0,1.0445685,5.7502676,390.93015)"
           id="flowRoot2996-8-9"
           xml:space="preserve"
           style="font-size:16px;font-style:normal;font-weight:normal;line-height:125%;letter-spacing:0px;word-spacing:0px;fill:#000000;fill-opacity:1;stroke:none;font-family:Sans"><flowRegion
             id="flowRegion2998-7-4"><rect
               width="222.99954"
               height="95.495438"
               x="733.84808"
               y="350.10251"
               id="rect3000-4-4"
               style="font-size:16px" /></flowRegion><flowPara
             id="flowPara3339"
             style="font-size:16px;font-weight:bold;text-align:center;text-anchor:middle;-inkscape-font-specification:Sans Bold">Guante de cuero curtido</flowPara><flowPara
             id="flowPara3345"
             style="font-size:16px;text-align:center;text-anchor:middle">para lanzar las bombas</flowPara><flowPara
             id="flowPara3216"
             style="font-size:16px;text-align:center;text-anchor:middle">de gas lacrimógeno</flowPara></flowRoot>      </g>
    </a>
    <a
       xlink:href="#gas-lacrimgeno"
       transform="matrix(1.1228239,0,0,1.1228239,-61.633556,-86.418537)"
       id="a3198">
      <g
         id="g3140">
        <path
           d="m 440.96875,877 25.625,39.53125 0,77.28125 c 0,8.864 7.136,16 16,16 l 200.75,0 c 8.864,0 16,-7.136 16,-16 l 0,-79.1875 c 0,-8.864 -7.136,-16 -16,-16 l -200.75,0 c -2.14592,0 -4.19587,0.42776 -6.0625,1.1875 L 440.96875,877 z"
           inkscape:connector-curvature="0"
           id="rect3095-4-6-6-7"
           style="opacity:0.65;color:#000000;fill:#ffff00;fill-opacity:1;fill-rule:nonzero;stroke:none;stroke-width:3;marker:none;visibility:visible;display:inline;overflow:visible;enable-background:accumulate" />
        <flowRoot
           transform="translate(-253.47482,559.34884)"
           id="flowRoot2996-8-9-6"
           xml:space="preserve"
           style="font-size:16px;font-style:normal;font-weight:normal;line-height:125%;letter-spacing:0px;word-spacing:0px;fill:#000000;fill-opacity:1;stroke:none;font-family:Sans"><flowRegion
             id="flowRegion2998-7-4-9"><rect
               width="201.49727"
               height="103.23626"
               x="733.84808"
               y="350.10251"
               id="rect3000-4-4-5"
               style="font-size:16px" /></flowRegion><flowPara
             id="flowPara3002-4-3-7"
             style="font-size:16px;font-weight:bold;text-align:center;text-anchor:middle;-inkscape-font-specification:Sans Bold">Roseador con  agua y 5% de bicarbonato</flowPara><flowPara
             id="flowPara3360"
             style="font-size:16px;text-align:center;text-anchor:middle">para protegerse del gas lacrimógeno</flowPara></flowRoot>      </g>
    </a>
    <g
       transform="matrix(1.1028365,0,0,1.1028365,-16.227364,-31.79824)"
       id="g3125">
      <path
         d="m 147.0625,453.6875 c -8.864,0 -16,7.136 -16,16 l 0,76 c 0,8.864 7.136,16 16,16 l 206.96875,0 c 8.71473,0 15.73396,-6.9065 15.96875,-15.5625 l 35.40625,10.125 -35.375,-25.15625 0,-61.40625 c 0,-8.864 -7.136,-16 -16,-16 l -206.96875,0 z"
         inkscape:connector-curvature="0"
         id="rect3095-4-6-1-3"
         style="opacity:0.65;color:#000000;fill:#ffff00;fill-opacity:1;fill-rule:nonzero;stroke:none;stroke-width:3;marker:none;visibility:visible;display:inline;overflow:visible;enable-background:accumulate" />
      <flowRoot
         transform="translate(-588.40418,112.49506)"
         id="flowRoot2996-8-9-6-1"
         xml:space="preserve"
         style="font-size:16px;font-style:normal;font-weight:normal;line-height:125%;letter-spacing:0px;word-spacing:0px;fill:#000000;fill-opacity:1;stroke:none;font-family:Sans"><flowRegion
           id="flowRegion2998-7-4-9-6"><rect
             width="201.49727"
             height="103.23626"
             x="733.84808"
             y="350.10251"
             id="rect3000-4-4-5-1"
             style="font-size:16px" /></flowRegion><flowPara
           id="flowPara3002-4-3-7-4"
           style="font-size:16px;text-align:center;text-anchor:middle"><flowSpan
   id="flowSpan3413"
   style="font-size:16px;font-weight:bold;-inkscape-font-specification:Sans Bold">Ropa de la gratisferia</flowSpan> para que no te identifiquen con ella y taparte la cara</flowPara></flowRoot>    </g>
    <g
       transform="matrix(1.0299355,0,0,1.0299355,-16.672744,5.21281)"
       id="g3172">
      <path
         d="m 673.15625,599.3125 c -8.864,0 -16,7.136 -16,16 l 0,6 -46.71875,16.46875 46.71875,7.09375 0,13.21875 c 0,8.864 7.136,16 16,16 l 204.84375,0 c 8.864,0 16,-7.136 16,-16 l 0,-42.78125 c 0,-8.864 -7.136,-16 -16,-16 l -204.84375,0 z"
         inkscape:connector-curvature="0"
         id="rect3095-4-6-6-7-7-3"
         style="opacity:0.65;color:#000000;fill:#ffff00;fill-opacity:1;fill-rule:nonzero;stroke:none;stroke-width:3;marker:none;visibility:visible;display:inline;overflow:visible;enable-background:accumulate" />
      <flowRoot
         transform="matrix(1.2121388,0,0,1.2121388,-238.63287,186.29132)"
         id="flowRoot2996-8-9-6-1-9"
         xml:space="preserve"
         style="font-size:16px;font-style:normal;font-weight:normal;line-height:125%;letter-spacing:0px;word-spacing:0px;fill:#000000;fill-opacity:1;stroke:none;font-family:Sans"><flowRegion
           id="flowRegion2998-7-4-9-6-3"><rect
             width="203.4192"
             height="43.65604"
             x="733.84808"
             y="350.10251"
             id="rect3000-4-4-5-1-4"
             style="font-size:16px" /></flowRegion><flowPara
           id="flowPara3002-4-3-7-4-5"
           style="font-size:16px;text-align:center;text-anchor:middle">Cámara grabando y transmitiendo en vivo</flowPara></flowRoot>    </g>
    <a
       xlink:href="#manifestdroid"
       transform="matrix(1.0299355,0,0,1.0299355,-16.672744,5.21281)"
       id="a3215">
      <g
         id="g3164">
        <path
           d="m 317.6875,911.46875 -30.15625,30.15625 -170.3125,0 c -8.864,0 -16,7.136 -16,16 l 0,78.4375 c 0,8.864 7.136,16 16,16 l 261.78125,0 c 8.864,0 16,-7.136 16,-16 l 0,-78.4375 c 0,-8.864 -7.136,-16 -16,-16 l -68.84375,0 z"
           inkscape:connector-curvature="0"
           id="rect3095-4-6-6"
           style="opacity:0.65;color:#000000;fill:#ffff00;fill-opacity:1;fill-rule:nonzero;stroke:none;stroke-width:3;marker:none;visibility:visible;display:inline;overflow:visible;enable-background:accumulate" />
        <flowRoot
           transform="matrix(1.0551656,0,0,1.0551656,-663.40097,583.25685)"
           id="flowRoot2996-8-9-6-1-3"
           xml:space="preserve"
           style="font-size:16px;font-style:normal;font-weight:normal;line-height:125%;letter-spacing:0px;word-spacing:0px;fill:#000000;fill-opacity:1;stroke:none;font-family:Sans"><flowRegion
             id="flowRegion2998-7-4-9-6-4"><rect
               width="261.63092"
               height="88.783592"
               x="733.84808"
               y="350.10251"
               id="rect3000-4-4-5-1-7"
               style="font-size:16px" /></flowRegion><flowPara
             id="flowPara3002-4-3-7-4-7"
             style="font-size:16px;font-weight:bold;text-align:center;text-anchor:middle;-inkscape-font-specification:Sans Bold">Teléfono con ManifestDroid</flowPara><flowPara
             id="flowPara3380"
             style="font-size:16px;text-align:center;text-anchor:middle">comunicación criptográfica, redes libres,  publicar fotos sin exponer a los manifestantes</flowPara><flowPara
             id="flowPara3204"
             style="font-size:16px;text-align:center;text-anchor:middle" /></flowRoot>      </g>
    </a>
    <g
       transform="matrix(1.0673,0,0,1.0673,-25.369259,-8.518575)"
       id="g3116">
      <path
         d="m 168.45868,298.3125 c -8.864,0 -16,7.136 -16,16 l 0,62.875 c 0,8.864 7.136,16 16,16 l 200.38507,0 51.25,43.5 -26.1875,-46 c 4.44553,-2.83638 7.375,-7.81378 7.375,-13.5 l 0,-62.875 c 0,-8.864 -7.136,-16 -16,-16 z"
         inkscape:connector-curvature="0"
         id="rect3095-4-6-6-7-0"
         style="opacity:0.65;color:#000000;fill:#ffff00;fill-opacity:1;fill-rule:nonzero;stroke:none;stroke-width:3;marker:none;visibility:visible;display:inline;overflow:visible;enable-background:accumulate" />
      <flowRoot
         transform="matrix(1.3057181,0,0,1.3057181,-835.9545,-151.05719)"
         id="flowRoot2996-8-9-6-1-4"
         xml:space="preserve"
         style="font-size:16px;font-style:normal;font-weight:normal;line-height:125%;letter-spacing:0px;word-spacing:0px;fill:#000000;fill-opacity:1;stroke:none;font-family:Sans"><flowRegion
           id="flowRegion2998-7-4-9-6-5"><rect
             width="236.1743"
             height="78.962334"
             x="733.84808"
             y="350.10251"
             id="rect3000-4-4-5-1-9"
             style="font-size:16px" /></flowRegion><flowPara
           id="flowPara3002-4-3-7-4-4"
           style="font-size:16px;font-weight:bold;text-align:center;text-anchor:middle;-inkscape-font-specification:Sans Bold">Mochila WIFI</flowPara><flowPara
           id="flowPara3208"
           style="font-size:16px;text-align:center;text-anchor:middle">para mejorar </flowPara><flowPara
           id="flowPara3220"
           style="font-size:16px;text-align:center;text-anchor:middle">el acceso a la red</flowPara></flowRoot>    </g>
    <a
       xlink:href="#linterna-estroboscopica"
       transform="matrix(1.138915,0,0,1.138915,-135.84439,-142.92647)"
       id="a3224">
      <g
         id="g3156">
        <path
           d="m 810.5,1162.75 8.375,22.75 -140.625,0 c -8.864,0 -16,7.136 -16,16 l 0,44.7812 c 0,8.8641 7.136,16 16,16 l 243.28125,0 c 8.864,0 16,-7.1359 16,-16 l 0,-44.7812 c 0,-8.864 -7.136,-16 -16,-16 l -82.25,0 z"
           inkscape:connector-curvature="0"
           id="rect3095-4-6-6-7-1"
           style="opacity:0.65;color:#000000;fill:#ffff00;fill-opacity:1;fill-rule:nonzero;stroke:none;stroke-width:3;marker:none;visibility:visible;display:inline;overflow:visible;enable-background:accumulate" />
        <flowRoot
           transform="matrix(1.1258487,0,0,1.1258487,-166.57019,802.72053)"
           id="flowRoot2996-8-9-6-8"
           xml:space="preserve"
           style="font-size:16px;font-style:normal;font-weight:normal;line-height:125%;letter-spacing:0px;word-spacing:0px;fill:#000000;fill-opacity:1;stroke:none;font-family:Sans"><flowRegion
             id="flowRegion2998-7-4-9-61"><rect
               width="245.60707"
               height="55.644093"
               x="733.84808"
               y="350.10251"
               id="rect3000-4-4-5-2"
               style="font-size:16px" /></flowRegion><flowPara
             id="flowPara3002-4-3-7-1"
             style="font-size:16px;font-weight:bold;text-align:center;text-anchor:middle;-inkscape-font-specification:Sans Bold">Linterna estroboscopico</flowPara><flowPara
             id="flowPara3398"
             style="font-size:16px;text-align:center;text-anchor:middle">para calmar a las fieras</flowPara></flowRoot>      </g>
    </a>
    <text
       x="52.308853"
       y="1525.2211"
       id="text3476-3"
       xml:space="preserve"
       style="font-size:41.19743729px;font-style:normal;font-weight:normal;line-height:125%;letter-spacing:0px;word-spacing:0px;fill:#000000;fill-opacity:1;stroke:none;font-family:Sans"><tspan
         x="52.308853"
         y="1525.2211"
         id="tspan3478-91"
         style="font-size:37.07769012px" /></text>
    <flowRoot
       transform="matrix(1.0299355,0,0,1.0299355,-16.672744,63.128691)"
       id="flowRoot3526"
       xml:space="preserve"
       style="font-size:40px;font-style:normal;font-weight:normal;line-height:125%;letter-spacing:0px;word-spacing:0px;fill:#000000;fill-opacity:1;stroke:none;font-family:Sans"><flowRegion
         id="flowRegion3528"><rect
           width="1736.7729"
           height="161.66769"
           x="-1547.3907"
           y="430.42035"
           id="rect3530" /></flowRegion><flowPara
         id="flowPara3532" /></flowRoot>    <a
       xlink:href="#proteccin-para-documentos-con-rfid"
       transform="matrix(1.0299355,0,0,1.0299355,-16.672744,5.21281)"
       id="a3207">
      <g
         id="g3133">
        <path
           d="m 405.97688,615.60008 c 8.864,0 16,7.136 16,16 l 0,6 56.71875,8.46875 -56.71875,15.09375 0,13.21875 c 0,8.864 -7.136,16 -16,16 l -204.84375,0 c -8.864,0 -16,-7.136 -16,-16 l 0,-42.78125 c 0,-8.864 7.136,-16 16,-16 z"
           inkscape:connector-curvature="0"
           id="rect3095-4-6-6-7-7-3-2"
           style="opacity:0.65;color:#000000;fill:#ffff00;fill-opacity:1;fill-rule:nonzero;stroke:none;stroke-width:3;marker:none;visibility:visible;display:inline;overflow:visible;enable-background:accumulate" />
        <flowRoot
           transform="matrix(1.1467832,0,0,1.1467832,-657.30547,226.69576)"
           id="flowRoot2996-8-9-6-1-9-3"
           xml:space="preserve"
           style="font-size:16px;font-style:normal;font-weight:normal;line-height:125%;letter-spacing:0px;word-spacing:0px;fill:#000000;fill-opacity:1;stroke:none;font-family:Sans"><flowRegion
             id="flowRegion2998-7-4-9-6-3-1"><rect
               width="203.4192"
               height="43.65604"
               x="733.84808"
               y="350.10251"
               id="rect3000-4-4-5-1-4-2"
               style="font-size:16px" /></flowRegion><flowPara
             id="flowPara3002-4-3-7-4-5-4"
             style="font-size:16px;font-weight:bold;text-align:center;text-anchor:middle;-inkscape-font-specification:Sans Bold">Protección anti-RFID</flowPara><flowPara
             id="flowPara3214"
             style="font-size:16px;text-align:center;text-anchor:middle">para identificaciones</flowPara></flowRoot>      </g>
    </a>
  </g>
  <g
     id="layer3"
     style="display:inline">
    <text
       x="980.76251"
       y="1404.3552"
       id="text3237"
       xml:space="preserve"
       style="font-size:50.30859375px;font-style:normal;font-weight:normal;text-align:end;line-height:125%;letter-spacing:0px;word-spacing:0px;text-anchor:end;fill:#000000;fill-opacity:1;stroke:none;font-family:Sans"><tspan
         x="707.46844"
         y="1404.3552"
         id="tspan3239"
         style="font-size:17.6080246px;text-align:end;text-anchor:end">bazza © licencia cc-by-sa / gfdl</tspan><tspan
         x="707.46844"
         y="1426.3652"
         id="tspan3087"
         style="font-size:17.6080246px;text-align:end;text-anchor:end">http://ur1.ca/e3iqv</tspan></text>
    <text
       x="64.955627"
       y="190.38159"
       id="text3476"
       xml:space="preserve"
       style="font-size:40px;font-style:normal;font-weight:normal;line-height:125%;letter-spacing:0px;word-spacing:0px;fill:#000000;fill-opacity:1;stroke:none;font-family:Sans"><tspan
         x="64.955627"
         y="190.38159"
         id="tspan3478"
         style="font-size:36px">Lo que necesitan los activistas post-moderno</tspan></text>
    <text
       x="60.776447"
       y="142.65739"
       id="text3476-5"
       xml:space="preserve"
       style="font-size:46.67562485px;font-style:normal;font-weight:normal;line-height:125%;letter-spacing:0px;word-spacing:0px;fill:#000000;fill-opacity:1;stroke:none;font-family:Sans"><tspan
         x="60.776447"
         y="142.65739"
         id="tspan3478-9"
         style="font-size:84.01578522px;font-weight:bold;-inkscape-font-specification:Sans Bold">Manifestante DIY</tspan></text>
  </g>
</svg>
